<svg xmlns="http://www.w3.org/2000/svg" xmlns:xlink="http://www.w3.org/1999/xlink" viewBox="0,0,256,256" width="48px" height="48px"><g fill="none" fill-rule="nonzero" stroke="none" stroke-width="1" stroke-linecap="butt" stroke-linejoin="miter" stroke-miterlimit="10" stroke-dasharray="" stroke-dashoffset="0" font-family="none" font-weight="none" font-size="none" text-anchor="none" style="mix-blend-mode: normal"><g transform="scale(5.33333,5.33333)"><path d="M43,11h-3.437l-15.207,-5.8c-0.014,-0.005 -0.087,-0.029 -0.102,-0.034c-0.22,-0.073 -0.458,-0.067 -0.672,0.016l-15.161,5.818h-3.421v2h0.013c0,0.042 -0.011,0.082 -0.005,0.124l2.872,22.972c0.12,0.965 0.704,1.815 1.564,2.275l14.085,7.512c0.147,0.078 0.309,0.117 0.471,0.117c0.162,0 0.324,-0.039 0.471,-0.117l14.086,-7.513c0.858,-0.459 1.443,-1.31 1.563,-2.274l2.872,-22.972c0.005,-0.042 -0.005,-0.082 -0.005,-0.124h0.013z" fill="#9b2929"></path><path d="M24,4.135l-0.059,-0.02l-17.941,6.885l2.871,22.971c0.081,0.645 0.47,1.211 1.043,1.517l14.086,7.512l14.085,-7.512c0.574,-0.306 0.963,-0.872 1.043,-1.517l2.872,-22.971z" fill="#ffffff"></path><path d="M24,44c-0.162,0 -0.324,-0.039 -0.471,-0.117l-14.085,-7.512c-0.86,-0.46 -1.444,-1.31 -1.565,-2.275l-2.871,-22.972c-0.057,-0.456 0.205,-0.893 0.634,-1.058l17.941,-6.885c0.214,-0.082 0.453,-0.09 0.672,-0.016c0.014,0.005 0.087,0.029 0.102,0.034l18,6.865c0.43,0.164 0.693,0.602 0.636,1.059l-2.872,22.972c-0.121,0.965 -0.705,1.815 -1.563,2.274l-14.086,7.513c-0.148,0.079 -0.31,0.118 -0.472,0.118zM7.089,11.653l2.774,22.194c0.041,0.321 0.235,0.605 0.522,0.759l13.615,7.26l13.615,-7.261c0.286,-0.152 0.481,-0.437 0.521,-0.758l2.774,-22.193l-16.964,-6.47z" fill="#9b2929"></path><path d="M35.987,32l-11.987,-24.004l-11.987,24.004h4.409l2.445,-5h5.133h5.133l2.445,5zM24,23h-3.177l3.177,-6.496l3.177,6.496z" fill="#9b2929"></path></g></g></svg>