<svg width="666" height="30" viewBox="0 0 666 30" fill="none" xmlns="http://www.w3.org/2000/svg">
<g opacity="0.8">
<path d="M0.5 15C0.5 6.99187 6.99187 0.5 15 0.5H902C910.008 0.5 916.5 6.99187 916.5 15V29.5H0.5V15Z" fill="#171A1B"/>
<path d="M0.5 15C0.5 6.99187 6.99187 0.5 15 0.5H902C910.008 0.5 916.5 6.99187 916.5 15V29.5H0.5V15Z" stroke="#4A4A4A"/>
<circle cx="28" cy="15" r="4" fill="#FF5F56"/>
<circle cx="44" cy="15" r="4" fill="#FFBD2E"/>
<circle cx="60" cy="15" r="4" fill="#27C93F"/>
<rect opacity="0.9" x="248" y="8" width="300" height="14" rx="5" fill="#202226"/>
<path d="M375.37 12.61C376.043 12.61 376.537 12.85 376.85 13.33C377.163 13.81 377.32 14.4867 377.32 15.36C377.32 16.1867 377.14 16.8533 376.78 17.36C376.42 17.8667 375.91 18.12 375.25 18.12C374.663 18.12 374.203 17.92 373.87 17.52V20.02L372.95 20.13V12.73H373.74L373.81 13.44C374.003 13.1733 374.237 12.97 374.51 12.83C374.783 12.6833 375.07 12.61 375.37 12.61ZM375.03 17.37C375.897 17.37 376.33 16.7 376.33 15.36C376.33 14.0133 375.933 13.34 375.14 13.34C374.88 13.34 374.643 13.4167 374.43 13.57C374.217 13.7233 374.03 13.92 373.87 14.16V16.73C374.003 16.9367 374.17 17.0967 374.37 17.21C374.57 17.3167 374.79 17.37 375.03 17.37ZM382.718 15.21C382.718 15.3633 382.711 15.52 382.698 15.68H379.337C379.377 16.26 379.524 16.6867 379.778 16.96C380.031 17.2333 380.358 17.37 380.758 17.37C381.011 17.37 381.244 17.3333 381.458 17.26C381.671 17.1867 381.894 17.07 382.128 16.91L382.528 17.46C381.968 17.9 381.354 18.12 380.688 18.12C379.954 18.12 379.381 17.88 378.967 17.4C378.561 16.92 378.357 16.26 378.357 15.42C378.357 14.8733 378.444 14.39 378.617 13.97C378.797 13.5433 379.051 13.21 379.377 12.97C379.711 12.73 380.101 12.61 380.548 12.61C381.248 12.61 381.784 12.84 382.157 13.3C382.531 13.76 382.718 14.3967 382.718 15.21ZM381.808 14.94C381.808 14.42 381.704 14.0233 381.498 13.75C381.291 13.4767 380.981 13.34 380.568 13.34C379.814 13.34 379.404 13.8933 379.337 15H381.808V14.94ZM387.489 16.77C387.489 16.9833 387.526 17.1433 387.599 17.25C387.672 17.35 387.782 17.4267 387.929 17.48L387.719 18.12C387.446 18.0867 387.226 18.01 387.059 17.89C386.892 17.77 386.769 17.5833 386.689 17.33C386.336 17.8567 385.812 18.12 385.119 18.12C384.599 18.12 384.189 17.9733 383.889 17.68C383.589 17.3867 383.439 17.0033 383.439 16.53C383.439 15.97 383.639 15.54 384.039 15.24C384.446 14.94 385.019 14.79 385.759 14.79H386.569V14.4C386.569 14.0267 386.479 13.76 386.299 13.6C386.119 13.44 385.842 13.36 385.469 13.36C385.082 13.36 384.609 13.4533 384.049 13.64L383.819 12.97C384.472 12.73 385.079 12.61 385.639 12.61C386.259 12.61 386.722 12.7633 387.029 13.07C387.336 13.37 387.489 13.8 387.489 14.36V16.77ZM385.329 17.43C385.856 17.43 386.269 17.1567 386.569 16.61V15.4H385.879C384.906 15.4 384.419 15.76 384.419 16.48C384.419 16.7933 384.496 17.03 384.649 17.19C384.802 17.35 385.029 17.43 385.329 17.43ZM391.709 12.61C392.189 12.61 392.562 12.7533 392.829 13.04C393.102 13.3267 393.239 13.72 393.239 14.22V18H392.319V14.35C392.319 13.9767 392.249 13.7133 392.109 13.56C391.969 13.4067 391.762 13.33 391.489 13.33C391.209 13.33 390.962 13.41 390.749 13.57C390.535 13.73 390.335 13.96 390.149 14.26V18H389.229V12.73H390.019L390.099 13.51C390.285 13.23 390.515 13.01 390.789 12.85C391.069 12.69 391.375 12.61 391.709 12.61ZM398.858 18H398.068L397.998 17.18C397.798 17.5067 397.568 17.7467 397.308 17.9C397.048 18.0467 396.731 18.12 396.358 18.12C395.898 18.12 395.538 17.98 395.278 17.7C395.018 17.42 394.888 17.0233 394.888 16.51V12.73H395.808V16.41C395.808 16.77 395.871 17.0267 395.998 17.18C396.125 17.3267 396.331 17.4 396.618 17.4C397.131 17.4 397.571 17.0967 397.938 16.49V12.73H398.858V18ZM403.268 17.76C402.922 18 402.528 18.12 402.088 18.12C401.642 18.12 401.292 17.9933 401.038 17.74C400.792 17.48 400.668 17.1067 400.668 16.62V13.44H399.748V12.73H400.668V11.54L401.588 11.43V12.73H402.838L402.738 13.44H401.588V16.58C401.588 16.8533 401.635 17.0533 401.728 17.18C401.828 17.3 401.992 17.36 402.218 17.36C402.425 17.36 402.658 17.29 402.918 17.15L403.268 17.76ZM406.091 15.18L407.921 18H406.811L405.521 15.77L404.211 18H403.171L405.011 15.22L403.381 12.73H404.461L405.561 14.66L406.671 12.73H407.711L406.091 15.18ZM410.607 12.61C410.92 12.61 411.207 12.6567 411.467 12.75C411.727 12.8367 411.977 12.98 412.217 13.18L411.777 13.76C411.59 13.6267 411.407 13.53 411.227 13.47C411.054 13.4033 410.86 13.37 410.647 13.37C410.22 13.37 409.887 13.54 409.647 13.88C409.414 14.22 409.297 14.7233 409.297 15.39C409.297 16.0567 409.414 16.55 409.647 16.87C409.88 17.1833 410.214 17.34 410.647 17.34C410.854 17.34 411.044 17.31 411.217 17.25C411.39 17.1833 411.584 17.08 411.797 16.94L412.217 17.54C411.737 17.9267 411.2 18.12 410.607 18.12C409.894 18.12 409.33 17.88 408.917 17.4C408.51 16.92 408.307 16.2567 408.307 15.41C408.307 14.85 408.4 14.36 408.587 13.94C408.774 13.52 409.037 13.1933 409.377 12.96C409.724 12.7267 410.134 12.61 410.607 12.61ZM415.792 12.61C416.272 12.61 416.646 12.7533 416.912 13.04C417.186 13.3267 417.322 13.72 417.322 14.22V18H416.402V14.35C416.402 13.9767 416.329 13.7133 416.182 13.56C416.042 13.4067 415.836 13.33 415.562 13.33C415.289 13.33 415.046 13.41 414.832 13.57C414.619 13.73 414.419 13.9567 414.232 14.25V18H413.312V10.62L414.232 10.52V13.46C414.646 12.8933 415.166 12.61 415.792 12.61ZM422.572 16.77C422.572 16.9833 422.609 17.1433 422.682 17.25C422.755 17.35 422.865 17.4267 423.012 17.48L422.802 18.12C422.529 18.0867 422.309 18.01 422.142 17.89C421.975 17.77 421.852 17.5833 421.772 17.33C421.419 17.8567 420.895 18.12 420.202 18.12C419.682 18.12 419.272 17.9733 418.972 17.68C418.672 17.3867 418.522 17.0033 418.522 16.53C418.522 15.97 418.722 15.54 419.122 15.24C419.529 14.94 420.102 14.79 420.842 14.79H421.652V14.4C421.652 14.0267 421.562 13.76 421.382 13.6C421.202 13.44 420.925 13.36 420.552 13.36C420.165 13.36 419.692 13.4533 419.132 13.64L418.902 12.97C419.555 12.73 420.162 12.61 420.722 12.61C421.342 12.61 421.805 12.7633 422.112 13.07C422.419 13.37 422.572 13.8 422.572 14.36V16.77ZM420.412 17.43C420.939 17.43 421.352 17.1567 421.652 16.61V15.4H420.962C419.989 15.4 419.502 15.76 419.502 16.48C419.502 16.7933 419.579 17.03 419.732 17.19C419.885 17.35 420.112 17.43 420.412 17.43ZM426.791 12.61C427.271 12.61 427.645 12.7533 427.911 13.04C428.185 13.3267 428.321 13.72 428.321 14.22V18H427.401V14.35C427.401 13.9767 427.331 13.7133 427.191 13.56C427.051 13.4067 426.845 13.33 426.571 13.33C426.291 13.33 426.045 13.41 425.831 13.57C425.618 13.73 425.418 13.96 425.231 14.26V18H424.311V12.73H425.101L425.181 13.51C425.368 13.23 425.598 13.01 425.871 12.85C426.151 12.69 426.458 12.61 426.791 12.61ZM434.271 12.97C434.071 13.0367 433.851 13.08 433.611 13.1C433.371 13.12 433.077 13.13 432.731 13.13C433.351 13.41 433.661 13.8533 433.661 14.46C433.661 14.9867 433.481 15.4167 433.121 15.75C432.761 16.0833 432.271 16.25 431.651 16.25C431.411 16.25 431.187 16.2167 430.981 16.15C430.901 16.2033 430.837 16.2767 430.791 16.37C430.744 16.4567 430.721 16.5467 430.721 16.64C430.721 16.9267 430.951 17.07 431.411 17.07H432.251C432.604 17.07 432.917 17.1333 433.191 17.26C433.464 17.3867 433.674 17.56 433.821 17.78C433.974 18 434.051 18.25 434.051 18.53C434.051 19.0433 433.841 19.4367 433.421 19.71C433.001 19.99 432.387 20.13 431.581 20.13C431.014 20.13 430.564 20.07 430.231 19.95C429.904 19.8367 429.671 19.6633 429.531 19.43C429.391 19.1967 429.321 18.8967 429.321 18.53H430.151C430.151 18.7433 430.191 18.91 430.271 19.03C430.351 19.1567 430.494 19.25 430.701 19.31C430.907 19.3767 431.201 19.41 431.581 19.41C432.134 19.41 432.527 19.34 432.761 19.2C433.001 19.0667 433.121 18.8633 433.121 18.59C433.121 18.3433 433.027 18.1567 432.841 18.03C432.654 17.9033 432.394 17.84 432.061 17.84H431.231C430.784 17.84 430.444 17.7467 430.211 17.56C429.984 17.3667 429.871 17.1267 429.871 16.84C429.871 16.6667 429.921 16.5 430.021 16.34C430.121 16.18 430.264 16.0367 430.451 15.91C430.144 15.75 429.917 15.5533 429.771 15.32C429.631 15.08 429.561 14.79 429.561 14.45C429.561 14.0967 429.647 13.78 429.821 13.5C430.001 13.22 430.244 13.0033 430.551 12.85C430.864 12.69 431.211 12.61 431.591 12.61C432.004 12.6167 432.351 12.6033 432.631 12.57C432.911 12.53 433.141 12.48 433.321 12.42C433.507 12.3533 433.734 12.26 434.001 12.14L434.271 12.97ZM431.591 13.27C431.244 13.27 430.974 13.38 430.781 13.6C430.594 13.8133 430.501 14.0967 430.501 14.45C430.501 14.81 430.597 15.1 430.791 15.32C430.984 15.5333 431.257 15.64 431.611 15.64C431.971 15.64 432.244 15.5367 432.431 15.33C432.624 15.1167 432.721 14.82 432.721 14.44C432.721 13.66 432.344 13.27 431.591 13.27ZM438.89 15.21C438.89 15.3633 438.883 15.52 438.87 15.68H435.51C435.55 16.26 435.696 16.6867 435.95 16.96C436.203 17.2333 436.53 17.37 436.93 17.37C437.183 17.37 437.416 17.3333 437.63 17.26C437.843 17.1867 438.066 17.07 438.3 16.91L438.7 17.46C438.14 17.9 437.526 18.12 436.86 18.12C436.126 18.12 435.553 17.88 435.14 17.4C434.733 16.92 434.53 16.26 434.53 15.42C434.53 14.8733 434.616 14.39 434.79 13.97C434.97 13.5433 435.223 13.21 435.55 12.97C435.883 12.73 436.273 12.61 436.72 12.61C437.42 12.61 437.956 12.84 438.33 13.3C438.703 13.76 438.89 14.3967 438.89 15.21ZM437.98 14.94C437.98 14.42 437.876 14.0233 437.67 13.75C437.463 13.4767 437.153 13.34 436.74 13.34C435.986 13.34 435.576 13.8933 435.51 15H437.98V14.94ZM440.351 16.73C440.551 16.73 440.718 16.7967 440.851 16.93C440.985 17.0633 441.051 17.2267 441.051 17.42C441.051 17.6133 440.985 17.78 440.851 17.92C440.718 18.0533 440.551 18.12 440.351 18.12C440.158 18.12 439.995 18.0533 439.861 17.92C439.728 17.78 439.661 17.6133 439.661 17.42C439.661 17.2267 439.728 17.0633 439.861 16.93C439.995 16.7967 440.158 16.73 440.351 16.73ZM444.186 12.61C444.499 12.61 444.786 12.6567 445.046 12.75C445.306 12.8367 445.556 12.98 445.796 13.18L445.356 13.76C445.169 13.6267 444.986 13.53 444.806 13.47C444.633 13.4033 444.439 13.37 444.226 13.37C443.799 13.37 443.466 13.54 443.226 13.88C442.993 14.22 442.876 14.7233 442.876 15.39C442.876 16.0567 442.993 16.55 443.226 16.87C443.459 17.1833 443.793 17.34 444.226 17.34C444.433 17.34 444.623 17.31 444.796 17.25C444.969 17.1833 445.163 17.08 445.376 16.94L445.796 17.54C445.316 17.9267 444.779 18.12 444.186 18.12C443.473 18.12 442.909 17.88 442.496 17.4C442.089 16.92 441.886 16.2567 441.886 15.41C441.886 14.85 441.979 14.36 442.166 13.94C442.353 13.52 442.616 13.1933 442.956 12.96C443.303 12.7267 443.713 12.61 444.186 12.61ZM448.676 12.61C449.416 12.61 449.989 12.8567 450.396 13.35C450.809 13.8433 451.016 14.5133 451.016 15.36C451.016 15.9067 450.923 16.39 450.736 16.81C450.549 17.2233 450.279 17.5467 449.926 17.78C449.573 18.0067 449.153 18.12 448.666 18.12C447.926 18.12 447.349 17.8733 446.936 17.38C446.523 16.8867 446.316 16.2167 446.316 15.37C446.316 14.8233 446.409 14.3433 446.596 13.93C446.783 13.51 447.053 13.1867 447.406 12.96C447.759 12.7267 448.183 12.61 448.676 12.61ZM448.676 13.35C447.763 13.35 447.306 14.0233 447.306 15.37C447.306 16.71 447.759 17.38 448.666 17.38C449.573 17.38 450.026 16.7067 450.026 15.36C450.026 14.02 449.576 13.35 448.676 13.35ZM457.676 12.61C458.109 12.61 458.456 12.7567 458.716 13.05C458.976 13.3367 459.106 13.7267 459.106 14.22V18H458.186V14.35C458.186 13.67 457.939 13.33 457.446 13.33C457.186 13.33 456.966 13.4067 456.786 13.56C456.606 13.7067 456.413 13.94 456.206 14.26V18H455.286V14.35C455.286 13.67 455.039 13.33 454.546 13.33C454.279 13.33 454.056 13.4067 453.876 13.56C453.696 13.7133 453.506 13.9467 453.306 14.26V18H452.386V12.73H453.176L453.256 13.5C453.649 12.9067 454.156 12.61 454.776 12.61C455.103 12.61 455.379 12.6933 455.606 12.86C455.839 13.0267 456.006 13.26 456.106 13.56C456.313 13.2533 456.539 13.02 456.786 12.86C457.039 12.6933 457.336 12.61 457.676 12.61Z" fill="white"/>
</g>
</svg>
