<svg width="915" height="41" viewBox="0 0 915 41" fill="none" xmlns="http://www.w3.org/2000/svg">
<g opacity="0.8">
<path d="M15 0.5H900C908.008 0.5 914.5 6.99187 914.5 15V40.5H0.5V15C0.5 6.99187 6.99187 0.5 15 0.5Z" fill="#171A1B"/>
<path d="M15 0.5H900C908.008 0.5 914.5 6.99187 914.5 15V40.5H0.5V15C0.5 6.99187 6.99187 0.5 15 0.5Z" stroke="#4A4A4A"/>
<circle cx="28" cy="20" r="4" fill="#FF5F56"/>
<circle cx="44" cy="20" r="4" fill="#FFBD2E"/>
<circle cx="60" cy="20" r="4" fill="#27C93F"/>
<rect opacity="0.9" x="283" y="12" width="350" height="17" rx="5" fill="#202226"/>
<path d="M401.793 26.4545V17.4545H403.31V18.5369H403.399C403.479 18.3778 403.591 18.2088 403.736 18.0298C403.881 17.848 404.077 17.6932 404.324 17.5653C404.571 17.4347 404.886 17.3693 405.27 17.3693C405.776 17.3693 406.232 17.4986 406.638 17.7571C407.047 18.0128 407.371 18.392 407.609 18.8949C407.851 19.3949 407.972 20.0085 407.972 20.7358C407.972 21.4545 407.854 22.0653 407.618 22.5682C407.382 23.071 407.061 23.4545 406.655 23.7188C406.249 23.983 405.788 24.1151 405.274 24.1151C404.899 24.1151 404.588 24.0526 404.341 23.9276C404.094 23.8026 403.895 23.652 403.744 23.4759C403.597 23.2969 403.482 23.1278 403.399 22.9688H403.335V26.4545H401.793ZM403.305 20.7273C403.305 21.1506 403.365 21.5213 403.484 21.8395C403.607 22.1577 403.781 22.4062 404.009 22.5852C404.239 22.7614 404.517 22.8494 404.844 22.8494C405.185 22.8494 405.47 22.7585 405.7 22.5767C405.93 22.392 406.104 22.1406 406.22 21.8224C406.339 21.5014 406.399 21.1364 406.399 20.7273C406.399 20.321 406.341 19.9602 406.224 19.6449C406.108 19.3295 405.935 19.0824 405.705 18.9034C405.474 18.7244 405.188 18.6349 404.844 18.6349C404.514 18.6349 404.234 18.7216 404.004 18.8949C403.774 19.0682 403.599 19.3111 403.48 19.6236C403.364 19.9361 403.305 20.304 403.305 20.7273ZM412.01 24.1278C411.354 24.1278 410.787 23.9915 410.31 23.7188C409.836 23.4432 409.471 23.054 409.215 22.5511C408.959 22.0455 408.831 21.4503 408.831 20.7656C408.831 20.0923 408.959 19.5014 409.215 18.9929C409.473 18.4815 409.834 18.0838 410.297 17.7997C410.76 17.5128 411.304 17.3693 411.929 17.3693C412.333 17.3693 412.713 17.4347 413.071 17.5653C413.432 17.6932 413.75 17.892 414.026 18.1619C414.304 18.4318 414.523 18.7756 414.682 19.1932C414.841 19.608 414.921 20.1023 414.921 20.6761V21.1491H409.556V20.1094H413.442C413.439 19.8139 413.375 19.5511 413.25 19.321C413.125 19.0881 412.951 18.9048 412.726 18.7713C412.505 18.6378 412.246 18.571 411.951 18.571C411.635 18.571 411.358 18.6477 411.12 18.8011C410.881 18.9517 410.695 19.1506 410.561 19.3977C410.431 19.642 410.364 19.9105 410.361 20.2031V21.1108C410.361 21.4915 410.431 21.8182 410.57 22.0909C410.709 22.3608 410.904 22.5682 411.154 22.7131C411.404 22.8551 411.696 22.9261 412.032 22.9261C412.256 22.9261 412.459 22.8949 412.641 22.8324C412.823 22.767 412.981 22.6719 413.114 22.5469C413.248 22.4219 413.348 22.267 413.417 22.0824L414.857 22.2443C414.766 22.625 414.593 22.9574 414.337 23.2415C414.084 23.5227 413.76 23.7415 413.365 23.8977C412.971 24.0511 412.519 24.1278 412.01 24.1278ZM417.929 24.1321C417.515 24.1321 417.141 24.0582 416.809 23.9105C416.479 23.7599 416.218 23.5384 416.025 23.2457C415.834 22.9531 415.739 22.5923 415.739 22.1634C415.739 21.794 415.807 21.4886 415.944 21.2472C416.08 21.0057 416.266 20.8125 416.502 20.6676C416.738 20.5227 417.003 20.4134 417.299 20.3395C417.597 20.2628 417.905 20.2074 418.223 20.1733C418.607 20.1335 418.918 20.098 419.157 20.0668C419.395 20.0327 419.569 19.9815 419.677 19.9134C419.787 19.8423 419.843 19.733 419.843 19.5852V19.5597C419.843 19.2386 419.748 18.9901 419.557 18.8139C419.367 18.6378 419.093 18.5497 418.735 18.5497C418.357 18.5497 418.057 18.6321 417.836 18.7969C417.617 18.9616 417.469 19.1562 417.392 19.3807L415.952 19.1761C416.066 18.7784 416.253 18.446 416.515 18.179C416.776 17.9091 417.096 17.7074 417.473 17.5739C417.851 17.4375 418.269 17.3693 418.726 17.3693C419.042 17.3693 419.356 17.4062 419.668 17.4801C419.981 17.554 420.266 17.6761 420.525 17.8466C420.783 18.0142 420.99 18.2429 421.147 18.5327C421.306 18.8224 421.385 19.1847 421.385 19.6193V24H419.902V23.1009H419.851C419.758 23.2827 419.625 23.4531 419.455 23.6122C419.287 23.7685 419.076 23.8949 418.82 23.9915C418.567 24.0852 418.27 24.1321 417.929 24.1321ZM418.33 22.9986C418.64 22.9986 418.908 22.9375 419.135 22.8153C419.363 22.6903 419.537 22.5256 419.66 22.321C419.785 22.1165 419.847 21.8935 419.847 21.652V20.8807C419.799 20.9205 419.716 20.9574 419.6 20.9915C419.486 21.0256 419.358 21.0554 419.216 21.081C419.074 21.1065 418.934 21.1293 418.794 21.1491C418.655 21.169 418.535 21.1861 418.432 21.2003C418.202 21.2315 417.996 21.2827 417.814 21.3537C417.633 21.4247 417.489 21.5241 417.384 21.652C417.279 21.777 417.226 21.9389 417.226 22.1378C417.226 22.4219 417.33 22.6364 417.537 22.7812C417.745 22.9261 418.009 22.9986 418.33 22.9986ZM424.299 20.1648V24H422.757V17.4545H424.231V18.5668H424.308C424.458 18.2003 424.698 17.9091 425.028 17.6932C425.36 17.4773 425.771 17.3693 426.259 17.3693C426.711 17.3693 427.105 17.4659 427.44 17.6591C427.778 17.8523 428.039 18.1321 428.224 18.4986C428.411 18.8651 428.504 19.3097 428.501 19.8324V24H426.958V20.071C426.958 19.6335 426.845 19.2912 426.617 19.044C426.393 18.7969 426.082 18.6733 425.684 18.6733C425.414 18.6733 425.174 18.733 424.964 18.8523C424.757 18.9687 424.593 19.1378 424.474 19.3594C424.357 19.581 424.299 19.8494 424.299 20.1648ZM434.061 21.2472V17.4545H435.604V24H434.108V22.8366H434.04C433.892 23.2031 433.649 23.5028 433.311 23.7358C432.976 23.9687 432.562 24.0852 432.071 24.0852C431.642 24.0852 431.263 23.9901 430.933 23.7997C430.606 23.6065 430.351 23.3267 430.166 22.9602C429.981 22.5909 429.889 22.1449 429.889 21.6222V17.4545H431.432V21.3835C431.432 21.7983 431.545 22.1278 431.773 22.3722C432 22.6165 432.298 22.7386 432.667 22.7386C432.895 22.7386 433.115 22.6832 433.328 22.5724C433.541 22.4616 433.716 22.2969 433.852 22.0781C433.991 21.8565 434.061 21.5795 434.061 21.2472ZM440.278 17.4545V18.6477H436.515V17.4545H440.278ZM437.444 15.8864H438.987V22.0312C438.987 22.2386 439.018 22.3977 439.081 22.5085C439.146 22.6165 439.231 22.6903 439.337 22.7301C439.442 22.7699 439.558 22.7898 439.686 22.7898C439.783 22.7898 439.871 22.7827 439.95 22.7685C440.033 22.7543 440.095 22.7415 440.138 22.7301L440.398 23.9361C440.315 23.9645 440.197 23.9957 440.044 24.0298C439.893 24.0639 439.709 24.0838 439.49 24.0895C439.104 24.1009 438.756 24.0426 438.446 23.9148C438.136 23.7841 437.89 23.5824 437.709 23.3097C437.53 23.0369 437.442 22.696 437.444 22.2869V15.8864ZM442.65 17.4545L443.971 19.8707L445.313 17.4545H446.945L444.972 20.7273L446.979 24H445.356L443.971 21.6435L442.599 24H440.962L442.957 20.7273L441.013 17.4545H442.65ZM450.567 24.1278C449.914 24.1278 449.353 23.9844 448.884 23.6974C448.418 23.4105 448.059 23.0142 447.806 22.5085C447.556 22 447.431 21.4148 447.431 20.7528C447.431 20.0881 447.559 19.5014 447.815 18.9929C448.07 18.4815 448.431 18.0838 448.897 17.7997C449.366 17.5128 449.92 17.3693 450.559 17.3693C451.09 17.3693 451.56 17.4673 451.969 17.6634C452.381 17.8565 452.709 18.1307 452.954 18.4858C453.198 18.8381 453.337 19.25 453.371 19.7216H451.897C451.837 19.4062 451.695 19.1435 451.471 18.9332C451.249 18.7202 450.952 18.6136 450.58 18.6136C450.265 18.6136 449.988 18.6989 449.749 18.8693C449.511 19.0369 449.325 19.2784 449.191 19.5938C449.06 19.9091 448.995 20.2869 448.995 20.7273C448.995 21.1733 449.06 21.5568 449.191 21.8778C449.322 22.196 449.505 22.4418 449.741 22.6151C449.979 22.7855 450.259 22.8707 450.58 22.8707C450.807 22.8707 451.011 22.8281 451.19 22.7429C451.371 22.6548 451.523 22.5284 451.646 22.3636C451.768 22.1989 451.852 21.9986 451.897 21.7628H453.371C453.334 22.2259 453.198 22.6364 452.962 22.9943C452.727 23.3494 452.405 23.6278 451.999 23.8295C451.593 24.0284 451.116 24.1278 450.567 24.1278ZM456.001 20.1648V24H454.458V15.2727H455.967V18.5668H456.043C456.197 18.1974 456.434 17.9062 456.755 17.6932C457.079 17.4773 457.491 17.3693 457.991 17.3693C458.445 17.3693 458.842 17.4645 459.18 17.6548C459.518 17.8452 459.779 18.1236 459.964 18.4901C460.151 18.8565 460.245 19.304 460.245 19.8324V24H458.702V20.071C458.702 19.6307 458.589 19.2884 458.361 19.044C458.137 18.7969 457.822 18.6733 457.415 18.6733C457.143 18.6733 456.898 18.733 456.683 18.8523C456.469 18.9687 456.302 19.1378 456.18 19.3594C456.06 19.581 456.001 19.8494 456.001 20.1648ZM463.521 24.1321C463.106 24.1321 462.733 24.0582 462.4 23.9105C462.071 23.7599 461.809 23.5384 461.616 23.2457C461.426 22.9531 461.331 22.5923 461.331 22.1634C461.331 21.794 461.399 21.4886 461.535 21.2472C461.672 21.0057 461.858 20.8125 462.093 20.6676C462.329 20.5227 462.595 20.4134 462.89 20.3395C463.189 20.2628 463.497 20.2074 463.815 20.1733C464.199 20.1335 464.51 20.098 464.748 20.0668C464.987 20.0327 465.16 19.9815 465.268 19.9134C465.379 19.8423 465.434 19.733 465.434 19.5852V19.5597C465.434 19.2386 465.339 18.9901 465.149 18.8139C464.958 18.6378 464.684 18.5497 464.326 18.5497C463.949 18.5497 463.649 18.6321 463.427 18.7969C463.208 18.9616 463.061 19.1562 462.984 19.3807L461.544 19.1761C461.657 18.7784 461.845 18.446 462.106 18.179C462.368 17.9091 462.687 17.7074 463.065 17.5739C463.443 17.4375 463.86 17.3693 464.318 17.3693C464.633 17.3693 464.947 17.4062 465.26 17.4801C465.572 17.554 465.858 17.6761 466.116 17.8466C466.375 18.0142 466.582 18.2429 466.738 18.5327C466.897 18.8224 466.977 19.1847 466.977 19.6193V24H465.494V23.1009H465.443C465.349 23.2827 465.217 23.4531 465.047 23.6122C464.879 23.7685 464.667 23.8949 464.412 23.9915C464.159 24.0852 463.862 24.1321 463.521 24.1321ZM463.922 22.9986C464.231 22.9986 464.5 22.9375 464.727 22.8153C464.954 22.6903 465.129 22.5256 465.251 22.321C465.376 22.1165 465.439 21.8935 465.439 21.652V20.8807C465.39 20.9205 465.308 20.9574 465.191 20.9915C465.078 21.0256 464.95 21.0554 464.808 21.081C464.666 21.1065 464.525 21.1293 464.386 21.1491C464.247 21.169 464.126 21.1861 464.024 21.2003C463.794 21.2315 463.588 21.2827 463.406 21.3537C463.224 21.4247 463.081 21.5241 462.976 21.652C462.87 21.777 462.818 21.9389 462.818 22.1378C462.818 22.4219 462.922 22.6364 463.129 22.7812C463.336 22.9261 463.601 22.9986 463.922 22.9986ZM469.891 20.1648V24H468.348V17.4545H469.823V18.5668H469.899C470.05 18.2003 470.29 17.9091 470.619 17.6932C470.952 17.4773 471.362 17.3693 471.851 17.3693C472.303 17.3693 472.696 17.4659 473.031 17.6591C473.369 17.8523 473.631 18.1321 473.815 18.4986C474.003 18.8651 474.095 19.3097 474.092 19.8324V24H472.55V20.071C472.55 19.6335 472.436 19.2912 472.209 19.044C471.984 18.7969 471.673 18.6733 471.276 18.6733C471.006 18.6733 470.766 18.733 470.555 18.8523C470.348 18.9687 470.185 19.1378 470.065 19.3594C469.949 19.581 469.891 19.8494 469.891 20.1648ZM478.327 26.5909C477.773 26.5909 477.297 26.5156 476.9 26.3651C476.502 26.2173 476.182 26.0185 475.941 25.7685C475.699 25.5185 475.532 25.2415 475.438 24.9375L476.827 24.6009C476.89 24.7287 476.981 24.8551 477.1 24.9801C477.219 25.108 477.38 25.2131 477.581 25.2955C477.786 25.3807 478.043 25.4233 478.353 25.4233C478.79 25.4233 479.152 25.3168 479.439 25.1037C479.726 24.8935 479.87 24.5469 479.87 24.0639V22.8239H479.793C479.714 22.983 479.597 23.1463 479.444 23.3139C479.293 23.4815 479.093 23.6222 478.843 23.7358C478.596 23.8494 478.285 23.9062 477.91 23.9062C477.407 23.9062 476.951 23.7884 476.542 23.5526C476.135 23.3139 475.812 22.9588 475.57 22.4872C475.331 22.0128 475.212 21.419 475.212 20.706C475.212 19.9872 475.331 19.3807 475.57 18.8864C475.812 18.3892 476.137 18.0128 476.546 17.7571C476.955 17.4986 477.411 17.3693 477.914 17.3693C478.297 17.3693 478.613 17.4347 478.86 17.5653C479.11 17.6932 479.309 17.848 479.456 18.0298C479.604 18.2088 479.716 18.3778 479.793 18.5369H479.878V17.4545H481.4V24.1065C481.4 24.6662 481.266 25.1293 480.999 25.4957C480.732 25.8622 480.367 26.1364 479.904 26.3182C479.441 26.5 478.915 26.5909 478.327 26.5909ZM478.34 22.696C478.667 22.696 478.945 22.6165 479.175 22.4574C479.405 22.2983 479.58 22.0696 479.699 21.7713C479.819 21.473 479.878 21.1151 479.878 20.6974C479.878 20.2855 479.819 19.9247 479.699 19.6151C479.583 19.3054 479.41 19.0653 479.179 18.8949C478.952 18.7216 478.672 18.6349 478.34 18.6349C477.996 18.6349 477.709 18.7244 477.479 18.9034C477.249 19.0824 477.076 19.3281 476.959 19.6406C476.843 19.9503 476.785 20.3026 476.785 20.6974C476.785 21.098 476.843 21.4489 476.959 21.75C477.079 22.0483 477.253 22.2812 477.483 22.4489C477.716 22.6136 478.002 22.696 478.34 22.696ZM485.698 24.1278C485.042 24.1278 484.475 23.9915 483.998 23.7188C483.524 23.4432 483.159 23.054 482.903 22.5511C482.647 22.0455 482.519 21.4503 482.519 20.7656C482.519 20.0923 482.647 19.5014 482.903 18.9929C483.161 18.4815 483.522 18.0838 483.985 17.7997C484.448 17.5128 484.992 17.3693 485.617 17.3693C486.021 17.3693 486.401 17.4347 486.759 17.5653C487.12 17.6932 487.438 17.892 487.714 18.1619C487.992 18.4318 488.211 18.7756 488.37 19.1932C488.529 19.608 488.609 20.1023 488.609 20.6761V21.1491H483.244V20.1094H487.13C487.127 19.8139 487.063 19.5511 486.938 19.321C486.813 19.0881 486.639 18.9048 486.414 18.7713C486.193 18.6378 485.934 18.571 485.639 18.571C485.323 18.571 485.046 18.6477 484.808 18.8011C484.569 18.9517 484.383 19.1506 484.249 19.3977C484.119 19.642 484.052 19.9105 484.049 20.2031V21.1108C484.049 21.4915 484.119 21.8182 484.258 22.0909C484.397 22.3608 484.592 22.5682 484.842 22.7131C485.092 22.8551 485.384 22.9261 485.72 22.9261C485.944 22.9261 486.147 22.8949 486.329 22.8324C486.511 22.767 486.668 22.6719 486.802 22.5469C486.936 22.4219 487.036 22.267 487.105 22.0824L488.545 22.2443C488.454 22.625 488.281 22.9574 488.025 23.2415C487.772 23.5227 487.448 23.7415 487.053 23.8977C486.659 24.0511 486.207 24.1278 485.698 24.1278ZM490.684 24.0938C490.426 24.0938 490.204 24.0028 490.019 23.821C489.835 23.6392 489.744 23.4176 489.747 23.1562C489.744 22.9006 489.835 22.6818 490.019 22.5C490.204 22.3182 490.426 22.2273 490.684 22.2273C490.934 22.2273 491.151 22.3182 491.336 22.5C491.524 22.6818 491.619 22.9006 491.622 23.1562C491.619 23.3295 491.573 23.4872 491.485 23.6293C491.4 23.7713 491.286 23.8849 491.144 23.9702C491.005 24.0526 490.852 24.0938 490.684 24.0938ZM495.889 24.1278C495.236 24.1278 494.675 23.9844 494.206 23.6974C493.74 23.4105 493.381 23.0142 493.128 22.5085C492.878 22 492.753 21.4148 492.753 20.7528C492.753 20.0881 492.881 19.5014 493.137 18.9929C493.392 18.4815 493.753 18.0838 494.219 17.7997C494.688 17.5128 495.242 17.3693 495.881 17.3693C496.412 17.3693 496.882 17.4673 497.291 17.6634C497.703 17.8565 498.031 18.1307 498.276 18.4858C498.52 18.8381 498.659 19.25 498.693 19.7216H497.219C497.159 19.4062 497.017 19.1435 496.793 18.9332C496.571 18.7202 496.274 18.6136 495.902 18.6136C495.587 18.6136 495.31 18.6989 495.071 18.8693C494.833 19.0369 494.647 19.2784 494.513 19.5938C494.382 19.9091 494.317 20.2869 494.317 20.7273C494.317 21.1733 494.382 21.5568 494.513 21.8778C494.644 22.196 494.827 22.4418 495.063 22.6151C495.301 22.7855 495.581 22.8707 495.902 22.8707C496.13 22.8707 496.333 22.8281 496.512 22.7429C496.693 22.6548 496.845 22.5284 496.968 22.3636C497.09 22.1989 497.174 21.9986 497.219 21.7628H498.693C498.656 22.2259 498.52 22.6364 498.284 22.9943C498.049 23.3494 497.728 23.6278 497.321 23.8295C496.915 24.0284 496.438 24.1278 495.889 24.1278ZM502.635 24.1278C501.996 24.1278 501.442 23.9872 500.973 23.706C500.505 23.4247 500.141 23.0312 499.882 22.5256C499.627 22.0199 499.499 21.429 499.499 20.7528C499.499 20.0767 499.627 19.4844 499.882 18.9759C500.141 18.4673 500.505 18.0724 500.973 17.7912C501.442 17.5099 501.996 17.3693 502.635 17.3693C503.274 17.3693 503.828 17.5099 504.297 17.7912C504.766 18.0724 505.128 18.4673 505.384 18.9759C505.642 19.4844 505.772 20.0767 505.772 20.7528C505.772 21.429 505.642 22.0199 505.384 22.5256C505.128 23.0312 504.766 23.4247 504.297 23.706C503.828 23.9872 503.274 24.1278 502.635 24.1278ZM502.644 22.892C502.99 22.892 503.28 22.7969 503.513 22.6065C503.746 22.4134 503.919 22.1548 504.033 21.831C504.149 21.5071 504.208 21.1463 504.208 20.7486C504.208 20.348 504.149 19.9858 504.033 19.6619C503.919 19.3352 503.746 19.0753 503.513 18.8821C503.28 18.6889 502.99 18.5923 502.644 18.5923C502.289 18.5923 501.993 18.6889 501.757 18.8821C501.524 19.0753 501.35 19.3352 501.233 19.6619C501.12 19.9858 501.063 20.348 501.063 20.7486C501.063 21.1463 501.12 21.5071 501.233 21.831C501.35 22.1548 501.524 22.4134 501.757 22.6065C501.993 22.7969 502.289 22.892 502.644 22.892ZM506.901 24V17.4545H508.375V18.5668H508.452C508.588 18.1918 508.814 17.8991 509.13 17.6889C509.445 17.4759 509.821 17.3693 510.259 17.3693C510.702 17.3693 511.076 17.4773 511.38 17.6932C511.686 17.9062 511.902 18.1974 512.027 18.5668H512.096C512.24 18.2031 512.485 17.9134 512.828 17.6974C513.175 17.4787 513.586 17.3693 514.06 17.3693C514.662 17.3693 515.154 17.5597 515.534 17.9403C515.915 18.321 516.105 18.8764 516.105 19.6065V24H514.559V19.8452C514.559 19.4389 514.451 19.142 514.235 18.9545C514.019 18.7642 513.755 18.669 513.442 18.669C513.07 18.669 512.779 18.7855 512.569 19.0185C512.361 19.2486 512.257 19.5483 512.257 19.9176V24H510.745V19.7812C510.745 19.4432 510.642 19.1733 510.438 18.9716C510.236 18.7699 509.972 18.669 509.645 18.669C509.424 18.669 509.222 18.7259 509.04 18.8395C508.858 18.9503 508.713 19.108 508.605 19.3125C508.497 19.5142 508.444 19.75 508.444 20.0199V24H506.901Z" fill="white"/>
</g>
</svg>
