<svg width="52" height="36" viewBox="0 0 52 36" xmlns="http://www.w3.org/2000/svg">
<rect width="52" height="36" rx="18" />
<g clip-path="url(#clip0_6_390)">
<path d="M17.6667 18.1699C17.6667 16.2629 17.6667 15.3094 18.0993 14.5189C18.532 13.7285 19.3224 13.2379 20.9034 12.2568L22.57 11.2224C24.2411 10.1852 25.0767 9.66666 26 9.66666C26.9233 9.66666 27.7588 10.1852 29.43 11.2224L31.0966 12.2568C32.6775 13.2379 33.468 13.7285 33.9007 14.5189C34.3333 15.3094 34.3333 16.2629 34.3333 18.1699V19.4375C34.3333 22.6882 34.3333 24.3136 33.357 25.3234C32.3807 26.3333 30.8094 26.3333 27.6667 26.3333H24.3333C21.1906 26.3333 19.6193 26.3333 18.643 25.3234C17.6667 24.3136 17.6667 22.6882 17.6667 19.4375V18.1699Z" stroke="white" stroke-width="1.5"/>
<path d="M26 20.5L26 23" stroke="white" stroke-width="1.5" stroke-linecap="round"/>
</g>
<defs>
<clipPath id="clip0_6_390">
<rect width="20" height="20" fill="white" transform="translate(16 8)"/>
</clipPath>
</defs>
</svg>
