<?xml version="1.0" encoding="UTF-8"?>
<svg id="Layer_1" data-name="Layer 1" xmlns="http://www.w3.org/2000/svg" xmlns:xlink="http://www.w3.org/1999/xlink" viewBox="0 0 52 36">
  <defs>
    <style>
      .cls-1 {
        stroke-linecap: round;
      }

      .cls-1, .cls-2 {
        stroke: #fff;
        stroke-width: 1.5px;
      }

      .cls-1, .cls-2, .cls-3 {
        fill: none;
      }

      .cls-4 {
        clip-path: url(#clippath);
      }

      .cls-5 {
        fill: #292929;
      }
    </style>
    <clipPath id="clippath">
      <rect class="cls-3" x="15.23" y="8" width="20" height="20"/>
    </clipPath>
  </defs>
  <path class="cls-5" d="m18,0h16c9.94,0,18,8.06,18,18h0c0,9.94-8.06,18-18,18h-16C8.06,36,0,27.94,0,18h0C0,8.06,8.06,0,18,0Z"/>
  <path class="cls-5" d="m20.94,8.81c1.77.26,3.08.35,3.99.32,6.42-.17-6.01-5.95-7.48.71-1.68,7.61,19.61,3.74,15.35.52S14.61,4.03,14.61,4.03l15.87.9,11.61,11.23-11.87,11.61-5.03-7.35-5.16.77-4.26-3.74-7.48-6.06.65,4.52v6.58l.65.39,11.35-14.06Z"/>
  <text/>
  <g class="cls-4">
    <g>
      <path class="cls-2" d="m16.89,18.17c0-1.91,0-2.86.43-3.65.43-.79,1.22-1.28,2.8-2.26l1.67-1.03c1.67-1.04,2.51-1.56,3.43-1.56s1.76.52,3.43,1.56l1.67,1.03c1.58.98,2.37,1.47,2.8,2.26.43.79.43,1.74.43,3.65v1.27c0,3.25,0,4.88-.98,5.89-.98,1.01-2.55,1.01-5.69,1.01h-3.33c-3.14,0-4.71,0-5.69-1.01-.98-1.01-.98-2.64-.98-5.89v-1.27Z"/>
      <path class="cls-1" d="m25.23,20.5v2.5"/>
    </g>
  </g>
</svg>