<svg width="306" height="384" viewBox="0 0 306 384" fill="none" xmlns="http://www.w3.org/2000/svg">
<g opacity="0.89">
<rect width="306" height="384" rx="12" fill="#0B0C0E" fill-opacity="0.8"/>
<rect x="24" y="24" width="256" height="173" rx="12" fill="#2D384D" fill-opacity="0.32"/>
<g filter="url(#filter0_f_3_12)">
<path d="M25.35 239V227.21H27.168V232.052H31.632V227.21H33.45V239H31.632V233.618H27.168V239H25.35ZM40.733 239.216C39.845 239.216 39.035 239.036 38.303 238.676C37.583 238.316 37.013 237.788 36.593 237.092C36.173 236.396 35.963 235.562 35.963 234.59C35.963 233.63 36.173 232.808 36.593 232.124C37.025 231.44 37.583 230.912 38.267 230.54C38.951 230.168 39.683 229.982 40.463 229.982C41.327 229.982 42.059 230.162 42.659 230.522C43.259 230.87 43.715 231.356 44.027 231.98C44.351 232.592 44.513 233.312 44.513 234.14C44.513 234.32 44.507 234.5 44.495 234.68C44.483 234.848 44.465 234.992 44.441 235.112H37.205V233.798H43.325L42.929 234.23C42.929 233.282 42.713 232.574 42.281 232.106C41.849 231.626 41.261 231.386 40.517 231.386C40.001 231.386 39.527 231.512 39.095 231.764C38.675 232.004 38.339 232.364 38.087 232.844C37.835 233.312 37.709 233.894 37.709 234.59C37.709 235.31 37.847 235.91 38.123 236.39C38.411 236.858 38.795 237.212 39.275 237.452C39.767 237.692 40.331 237.812 40.967 237.812C41.459 237.812 41.909 237.746 42.317 237.614C42.725 237.47 43.127 237.278 43.523 237.038L44.153 238.172C43.709 238.472 43.199 238.724 42.623 238.928C42.047 239.12 41.417 239.216 40.733 239.216ZM49.9239 239.216C49.3599 239.216 48.8499 239.114 48.3939 238.91C47.9499 238.694 47.5959 238.4 47.3319 238.028C47.0799 237.644 46.9539 237.194 46.9539 236.678C46.9539 235.694 47.4339 234.944 48.3939 234.428C49.3659 233.912 50.9559 233.57 53.1639 233.402C53.1519 233.042 53.0679 232.712 52.9119 232.412C52.7679 232.112 52.5339 231.878 52.2099 231.71C51.8979 231.53 51.4839 231.44 50.9679 231.44C50.6079 231.44 50.2539 231.488 49.9059 231.584C49.5579 231.668 49.2219 231.788 48.8979 231.944C48.5739 232.1 48.2679 232.262 47.9799 232.43L47.3139 231.224C47.6379 231.032 48.0099 230.84 48.4299 230.648C48.8499 230.444 49.2999 230.282 49.7799 230.162C50.2719 230.042 50.7699 229.982 51.2739 229.982C52.0899 229.982 52.7679 230.132 53.3079 230.432C53.8479 230.732 54.2559 231.158 54.5319 231.71C54.8079 232.262 54.9459 232.928 54.9459 233.708V239H53.4879L53.3439 237.866H53.2899C52.8219 238.226 52.2939 238.544 51.7059 238.82C51.1179 239.084 50.5239 239.216 49.9239 239.216ZM50.4279 237.794C50.8959 237.794 51.3579 237.692 51.8139 237.488C52.2699 237.284 52.7199 236.996 53.1639 236.624V234.536C52.0119 234.62 51.1059 234.752 50.4459 234.932C49.7979 235.112 49.3419 235.34 49.0779 235.616C48.8139 235.88 48.6819 236.192 48.6819 236.552C48.6819 236.84 48.7599 237.08 48.9159 237.272C49.0839 237.452 49.2999 237.584 49.5639 237.668C49.8279 237.752 50.1159 237.794 50.4279 237.794ZM61.1849 239.216C60.0449 239.216 59.1269 238.814 58.4309 238.01C57.7349 237.194 57.3869 236.06 57.3869 234.608C57.3869 233.66 57.5729 232.844 57.9449 232.16C58.3289 231.464 58.8209 230.93 59.4209 230.558C60.0209 230.174 60.6569 229.982 61.3289 229.982C61.8449 229.982 62.3069 230.078 62.7149 230.27C63.1229 230.462 63.5009 230.732 63.8489 231.08H63.9029L63.8129 229.514V226.238H65.5949V239H64.1369L63.9929 237.92H63.9389C63.5909 238.268 63.1769 238.574 62.6969 238.838C62.2169 239.09 61.7129 239.216 61.1849 239.216ZM61.5989 237.74C61.9949 237.74 62.3729 237.644 62.7329 237.452C63.1049 237.248 63.4649 236.948 63.8129 236.552V232.376C63.4649 232.052 63.1169 231.824 62.7689 231.692C62.4209 231.548 62.0729 231.476 61.7249 231.476C61.2689 231.476 60.8489 231.602 60.4649 231.854C60.0929 232.106 59.7929 232.466 59.5649 232.934C59.3369 233.402 59.2229 233.954 59.2229 234.59C59.2229 235.598 59.4329 236.378 59.8529 236.93C60.2729 237.47 60.8549 237.74 61.5989 237.74ZM74.4259 239.216C73.4539 239.216 72.7099 238.934 72.1939 238.37C71.6779 237.794 71.4199 236.978 71.4199 235.922V227.678H68.4859V226.238H73.2019V236.03C73.2019 236.642 73.3579 237.086 73.6699 237.362C73.9819 237.626 74.3719 237.758 74.8399 237.758C75.0799 237.758 75.3259 237.728 75.5779 237.668C75.8419 237.608 76.1299 237.512 76.4419 237.38L76.8739 238.712C76.4539 238.856 76.0639 238.976 75.7039 239.072C75.3559 239.168 74.9299 239.216 74.4259 239.216ZM83.4728 239V231.638H79.5308V230.198H85.2548V239H83.4728ZM84.2108 228.488C83.8268 228.488 83.5088 228.374 83.2568 228.146C83.0048 227.906 82.8788 227.594 82.8788 227.21C82.8788 226.826 83.0048 226.52 83.2568 226.292C83.5088 226.052 83.8268 225.932 84.2108 225.932C84.5948 225.932 84.9128 226.052 85.1648 226.292C85.4168 226.52 85.5428 226.826 85.5428 227.21C85.5428 227.594 85.4168 227.906 85.1648 228.146C84.9128 228.374 84.5948 228.488 84.2108 228.488ZM90.3418 239V230.198H91.7998L91.9438 231.62H92.0158C92.4598 231.164 92.9398 230.78 93.4558 230.468C93.9718 230.144 94.5718 229.982 95.2558 229.982C96.2758 229.982 97.0258 230.294 97.5058 230.918C97.9978 231.53 98.2438 232.406 98.2438 233.546V239H96.4618V233.78C96.4618 233.012 96.3178 232.448 96.0298 232.088C95.7538 231.716 95.2858 231.53 94.6258 231.53C94.1578 231.53 93.7378 231.65 93.3658 231.89C92.9938 232.118 92.5798 232.466 92.1238 232.934V239H90.3418ZM105.491 239.216C104.603 239.216 103.793 239.036 103.061 238.676C102.341 238.316 101.771 237.788 101.351 237.092C100.931 236.396 100.721 235.562 100.721 234.59C100.721 233.63 100.931 232.808 101.351 232.124C101.783 231.44 102.341 230.912 103.025 230.54C103.709 230.168 104.441 229.982 105.221 229.982C106.085 229.982 106.817 230.162 107.417 230.522C108.017 230.87 108.473 231.356 108.785 231.98C109.109 232.592 109.271 233.312 109.271 234.14C109.271 234.32 109.265 234.5 109.253 234.68C109.241 234.848 109.223 234.992 109.199 235.112H101.963V233.798H108.083L107.687 234.23C107.687 233.282 107.471 232.574 107.039 232.106C106.607 231.626 106.019 231.386 105.275 231.386C104.759 231.386 104.285 231.512 103.853 231.764C103.433 232.004 103.097 232.364 102.845 232.844C102.593 233.312 102.467 233.894 102.467 234.59C102.467 235.31 102.605 235.91 102.881 236.39C103.169 236.858 103.553 237.212 104.033 237.452C104.525 237.692 105.089 237.812 105.725 237.812C106.217 237.812 106.667 237.746 107.075 237.614C107.483 237.47 107.885 237.278 108.281 237.038L108.911 238.172C108.467 238.472 107.957 238.724 107.381 238.928C106.805 239.12 106.175 239.216 105.491 239.216Z" fill="#FFE4C4" fill-opacity="0.603922"/>
<path d="M25.428 262V252.816H28.2C28.8813 252.816 29.474 252.905 29.978 253.082C30.4913 253.25 30.888 253.53 31.168 253.922C31.4573 254.314 31.602 254.846 31.602 255.518C31.602 256.162 31.4573 256.694 31.168 257.114C30.888 257.525 30.4913 257.837 29.978 258.052C29.4647 258.257 28.872 258.36 28.2 258.36H26.59V262H25.428ZM26.59 257.408H28.06C28.8627 257.408 29.4553 257.254 29.838 256.946C30.23 256.638 30.426 256.162 30.426 255.518C30.426 254.855 30.23 254.398 29.838 254.146C29.446 253.885 28.8533 253.754 28.06 253.754H26.59V257.408ZM38.0785 262.168C37.3599 262.168 36.8092 261.963 36.4265 261.552C36.0439 261.132 35.8525 260.521 35.8525 259.718V252.97H33.5285V252.032H37.0005V259.802C37.0005 260.297 37.1219 260.656 37.3645 260.88C37.6072 261.104 37.9292 261.216 38.3305 261.216C38.5265 261.216 38.7272 261.193 38.9325 261.146C39.1379 261.09 39.3665 261.006 39.6185 260.894L39.9125 261.762C39.6045 261.874 39.3152 261.967 39.0445 262.042C38.7739 262.126 38.4519 262.168 38.0785 262.168ZM45.4091 262.168C44.7277 262.168 44.1071 262.028 43.5471 261.748C42.9964 261.468 42.5577 261.062 42.2311 260.53C41.9044 259.989 41.7411 259.34 41.7411 258.584C41.7411 257.847 41.9044 257.212 42.2311 256.68C42.5577 256.148 42.9824 255.742 43.5051 255.462C44.0371 255.173 44.6064 255.028 45.2131 255.028C45.8664 255.028 46.4217 255.163 46.8791 255.434C47.3457 255.695 47.7004 256.064 47.9431 256.54C48.1951 257.016 48.3211 257.576 48.3211 258.22C48.3211 258.351 48.3164 258.477 48.3071 258.598C48.2977 258.719 48.2837 258.827 48.2651 258.92H42.5111V258.024H47.5791L47.2851 258.346C47.2851 257.543 47.0984 256.941 46.7251 256.54C46.3611 256.139 45.8664 255.938 45.2411 255.938C44.8211 255.938 44.4291 256.041 44.0651 256.246C43.7104 256.451 43.4257 256.75 43.2111 257.142C42.9964 257.534 42.8891 258.015 42.8891 258.584C42.8891 259.172 43.0057 259.662 43.2391 260.054C43.4724 260.446 43.7897 260.745 44.1911 260.95C44.5924 261.146 45.0451 261.244 45.5491 261.244C45.9597 261.244 46.3284 261.188 46.6551 261.076C46.9911 260.955 47.3131 260.796 47.6211 260.6L48.0411 261.356C47.7051 261.58 47.3177 261.771 46.8791 261.93C46.4497 262.089 45.9597 262.168 45.4091 262.168ZM52.6276 262.168C52.2076 262.168 51.8203 262.093 51.4656 261.944C51.1109 261.785 50.8309 261.561 50.6256 261.272C50.4203 260.983 50.3176 260.637 50.3176 260.236C50.3176 259.471 50.7003 258.892 51.4656 258.5C52.2309 258.099 53.4909 257.828 55.2456 257.688C55.2363 257.38 55.1709 257.095 55.0496 256.834C54.9376 256.573 54.7509 256.367 54.4896 256.218C54.2283 256.059 53.8783 255.98 53.4396 255.98C53.1503 255.98 52.8609 256.022 52.5716 256.106C52.2916 256.181 52.0209 256.283 51.7596 256.414C51.5076 256.535 51.2743 256.661 51.0596 256.792L50.6116 256.008C50.8356 255.859 51.1063 255.709 51.4236 255.56C51.7503 255.401 52.1003 255.275 52.4736 255.182C52.8469 255.079 53.2343 255.028 53.6356 255.028C54.2609 255.028 54.7743 255.145 55.1756 255.378C55.5863 255.611 55.8896 255.938 56.0856 256.358C56.2909 256.769 56.3936 257.259 56.3936 257.828V262H55.4556L55.3576 261.076H55.3156C54.9423 261.375 54.5223 261.631 54.0556 261.846C53.5889 262.061 53.1129 262.168 52.6276 262.168ZM52.9356 261.244C53.3276 261.244 53.7149 261.155 54.0976 260.978C54.4803 260.801 54.8629 260.553 55.2456 260.236V258.444C54.2749 258.528 53.5096 258.645 52.9496 258.794C52.3989 258.943 52.0069 259.135 51.7736 259.368C51.5496 259.592 51.4376 259.853 51.4376 260.152C51.4376 260.404 51.5076 260.614 51.6476 260.782C51.7876 260.941 51.9696 261.057 52.1936 261.132C52.4269 261.207 52.6743 261.244 52.9356 261.244ZM61.9181 262.168C61.2555 262.168 60.6348 262.061 60.0561 261.846C59.4775 261.631 58.9828 261.384 58.5721 261.104L59.1041 260.348C59.4961 260.628 59.9301 260.852 60.4061 261.02C60.8821 261.188 61.4328 261.272 62.0581 261.272C62.6368 261.272 63.0661 261.165 63.3461 260.95C63.6355 260.735 63.7801 260.488 63.7801 260.208C63.7801 260.077 63.7521 259.956 63.6961 259.844C63.6495 259.732 63.5515 259.625 63.4021 259.522C63.2621 259.419 63.0521 259.321 62.7721 259.228C62.4921 259.135 62.1188 259.041 61.6521 258.948C60.7655 258.761 60.0981 258.509 59.6501 258.192C59.2115 257.875 58.9921 257.464 58.9921 256.96C58.9921 256.409 59.2301 255.952 59.7061 255.588C60.1821 255.215 60.8868 255.028 61.8201 255.028C62.3428 255.028 62.8468 255.117 63.3321 255.294C63.8175 255.462 64.2281 255.663 64.5641 255.896L64.0041 256.638C63.6961 256.414 63.3461 256.241 62.9541 256.12C62.5621 255.989 62.1515 255.924 61.7221 255.924C61.3301 255.924 61.0175 255.971 60.7841 256.064C60.5601 256.148 60.3968 256.265 60.2941 256.414C60.2008 256.563 60.1541 256.727 60.1541 256.904C60.1541 257.193 60.3081 257.422 60.6161 257.59C60.9335 257.749 61.4375 257.898 62.1281 258.038C62.8841 258.197 63.4628 258.374 63.8641 258.57C64.2748 258.766 64.5548 258.99 64.7041 259.242C64.8628 259.494 64.9421 259.793 64.9421 260.138C64.9421 260.511 64.8255 260.852 64.5921 261.16C64.3588 261.459 64.0181 261.701 63.5701 261.888C63.1221 262.075 62.5715 262.168 61.9181 262.168ZM70.5927 262.168C69.9113 262.168 69.2907 262.028 68.7307 261.748C68.18 261.468 67.7413 261.062 67.4147 260.53C67.088 259.989 66.9247 259.34 66.9247 258.584C66.9247 257.847 67.088 257.212 67.4147 256.68C67.7413 256.148 68.166 255.742 68.6887 255.462C69.2207 255.173 69.79 255.028 70.3967 255.028C71.05 255.028 71.6053 255.163 72.0627 255.434C72.5293 255.695 72.884 256.064 73.1267 256.54C73.3787 257.016 73.5047 257.576 73.5047 258.22C73.5047 258.351 73.5 258.477 73.4907 258.598C73.4813 258.719 73.4673 258.827 73.4487 258.92H67.6947V258.024H72.7627L72.4687 258.346C72.4687 257.543 72.282 256.941 71.9087 256.54C71.5447 256.139 71.05 255.938 70.4247 255.938C70.0047 255.938 69.6127 256.041 69.2487 256.246C68.894 256.451 68.6093 256.75 68.3947 257.142C68.18 257.534 68.0727 258.015 68.0727 258.584C68.0727 259.172 68.1893 259.662 68.4227 260.054C68.656 260.446 68.9733 260.745 69.3747 260.95C69.776 261.146 70.2287 261.244 70.7327 261.244C71.1433 261.244 71.512 261.188 71.8387 261.076C72.1747 260.955 72.4967 260.796 72.8047 260.6L73.2247 261.356C72.8887 261.58 72.5013 261.771 72.0627 261.93C71.6333 262.089 71.1433 262.168 70.5927 262.168ZM86.2057 262.168C85.7857 262.168 85.3984 262.093 85.0437 261.944C84.6891 261.785 84.4091 261.561 84.2037 261.272C83.9984 260.983 83.8957 260.637 83.8957 260.236C83.8957 259.471 84.2784 258.892 85.0437 258.5C85.8091 258.099 87.0691 257.828 88.8237 257.688C88.8144 257.38 88.7491 257.095 88.6277 256.834C88.5157 256.573 88.3291 256.367 88.0677 256.218C87.8064 256.059 87.4564 255.98 87.0177 255.98C86.7284 255.98 86.4391 256.022 86.1497 256.106C85.8697 256.181 85.5991 256.283 85.3377 256.414C85.0857 256.535 84.8524 256.661 84.6377 256.792L84.1897 256.008C84.4137 255.859 84.6844 255.709 85.0017 255.56C85.3284 255.401 85.6784 255.275 86.0517 255.182C86.4251 255.079 86.8124 255.028 87.2137 255.028C87.8391 255.028 88.3524 255.145 88.7537 255.378C89.1644 255.611 89.4677 255.938 89.6637 256.358C89.8691 256.769 89.9717 257.259 89.9717 257.828V262H89.0337L88.9357 261.076H88.8937C88.5204 261.375 88.1004 261.631 87.6337 261.846C87.1671 262.061 86.6911 262.168 86.2057 262.168ZM86.5137 261.244C86.9057 261.244 87.2931 261.155 87.6757 260.978C88.0584 260.801 88.4411 260.553 88.8237 260.236V258.444C87.8531 258.528 87.0877 258.645 86.5277 258.794C85.9771 258.943 85.5851 259.135 85.3517 259.368C85.1277 259.592 85.0157 259.853 85.0157 260.152C85.0157 260.404 85.0857 260.614 85.2257 260.782C85.3657 260.941 85.5477 261.057 85.7717 261.132C86.0051 261.207 86.2524 261.244 86.5137 261.244ZM94.9503 262.168C94.0636 262.168 93.3496 261.86 92.8083 261.244C92.2669 260.619 91.9963 259.741 91.9963 258.612C91.9963 257.875 92.1409 257.24 92.4303 256.708C92.7289 256.167 93.1116 255.751 93.5783 255.462C94.0543 255.173 94.5583 255.028 95.0903 255.028C95.4916 255.028 95.8556 255.107 96.1823 255.266C96.5183 255.415 96.8309 255.63 97.1203 255.91H97.1623L97.1063 254.65V252.032H98.2543V262H97.3023L97.2043 261.104H97.1623C96.8916 261.393 96.5603 261.645 96.1683 261.86C95.7856 262.065 95.3796 262.168 94.9503 262.168ZM95.1883 261.202C95.5243 261.202 95.8509 261.118 96.1683 260.95C96.4856 260.773 96.7983 260.516 97.1063 260.18V256.792C96.7983 256.503 96.4949 256.297 96.1963 256.176C95.9069 256.055 95.6129 255.994 95.3143 255.994C94.9223 255.994 94.5629 256.106 94.2363 256.33C93.9189 256.545 93.6623 256.848 93.4663 257.24C93.2796 257.623 93.1863 258.075 93.1863 258.598C93.1863 259.41 93.3636 260.049 93.7183 260.516C94.0729 260.973 94.5629 261.202 95.1883 261.202ZM103.345 262.168C102.458 262.168 101.744 261.86 101.203 261.244C100.661 260.619 100.391 259.741 100.391 258.612C100.391 257.875 100.535 257.24 100.825 256.708C101.123 256.167 101.506 255.751 101.973 255.462C102.449 255.173 102.953 255.028 103.485 255.028C103.886 255.028 104.25 255.107 104.577 255.266C104.913 255.415 105.225 255.63 105.515 255.91H105.557L105.501 254.65V252.032H106.649V262H105.697L105.599 261.104H105.557C105.286 261.393 104.955 261.645 104.563 261.86C104.18 262.065 103.774 262.168 103.345 262.168ZM103.583 261.202C103.919 261.202 104.245 261.118 104.563 260.95C104.88 260.773 105.193 260.516 105.501 260.18V256.792C105.193 256.503 104.889 256.297 104.591 256.176C104.301 256.055 104.007 255.994 103.709 255.994C103.317 255.994 102.957 256.106 102.631 256.33C102.313 256.545 102.057 256.848 101.861 257.24C101.674 257.623 101.581 258.075 101.581 258.598C101.581 259.41 101.758 260.049 102.113 260.516C102.467 260.973 102.957 261.202 103.583 261.202ZM118.174 264.926C118.025 264.926 117.866 264.912 117.698 264.884C117.539 264.856 117.399 264.823 117.278 264.786L117.516 263.876C117.609 263.904 117.707 263.927 117.81 263.946C117.922 263.965 118.029 263.974 118.132 263.974C118.608 263.974 118.995 263.834 119.294 263.554C119.593 263.283 119.826 262.938 119.994 262.518L120.204 262.014L117.026 255.196H118.188L119.854 258.962C119.985 259.261 120.12 259.583 120.26 259.928C120.409 260.264 120.554 260.6 120.694 260.936H120.75C120.871 260.609 120.993 260.278 121.114 259.942C121.245 259.597 121.366 259.27 121.478 258.962L122.962 255.196H124.054L121.058 262.56C120.89 263.008 120.68 263.409 120.428 263.764C120.176 264.128 119.863 264.413 119.49 264.618C119.126 264.823 118.687 264.926 118.174 264.926ZM128.934 262.168C128.337 262.168 127.782 262.028 127.268 261.748C126.764 261.468 126.354 261.062 126.036 260.53C125.728 259.998 125.574 259.359 125.574 258.612C125.574 257.847 125.728 257.198 126.036 256.666C126.354 256.134 126.764 255.728 127.268 255.448C127.782 255.168 128.337 255.028 128.934 255.028C129.532 255.028 130.082 255.168 130.586 255.448C131.1 255.728 131.51 256.134 131.818 256.666C132.136 257.198 132.294 257.847 132.294 258.612C132.294 259.359 132.136 259.998 131.818 260.53C131.51 261.062 131.1 261.468 130.586 261.748C130.082 262.028 129.532 262.168 128.934 262.168ZM128.934 261.216C129.373 261.216 129.756 261.109 130.082 260.894C130.409 260.67 130.661 260.362 130.838 259.97C131.016 259.578 131.104 259.125 131.104 258.612C131.104 258.089 131.016 257.632 130.838 257.24C130.661 256.839 130.409 256.531 130.082 256.316C129.756 256.092 129.373 255.98 128.934 255.98C128.496 255.98 128.113 256.092 127.786 256.316C127.469 256.531 127.217 256.839 127.03 257.24C126.853 257.632 126.764 258.089 126.764 258.612C126.764 259.125 126.853 259.578 127.03 259.97C127.217 260.362 127.469 260.67 127.786 260.894C128.113 261.109 128.496 261.216 128.934 261.216ZM136.573 262.168C135.761 262.168 135.164 261.935 134.781 261.468C134.398 261.001 134.207 260.32 134.207 259.424V255.196H135.369V259.27C135.369 259.914 135.486 260.395 135.719 260.712C135.962 261.02 136.368 261.174 136.937 261.174C137.329 261.174 137.684 261.076 138.001 260.88C138.328 260.675 138.678 260.353 139.051 259.914V255.196H140.199V262H139.261L139.163 260.81H139.107C138.762 261.202 138.384 261.529 137.973 261.79C137.562 262.042 137.096 262.168 136.573 262.168ZM143.567 262V255.196H144.519L144.617 256.806H144.659C145.014 256.255 145.453 255.821 145.975 255.504C146.498 255.187 147.072 255.028 147.697 255.028C147.949 255.028 148.183 255.051 148.397 255.098C148.621 255.135 148.836 255.205 149.041 255.308L148.775 256.302C148.542 256.218 148.341 256.157 148.173 256.12C148.005 256.083 147.786 256.064 147.515 256.064C147.002 256.064 146.507 256.213 146.031 256.512C145.565 256.801 145.126 257.301 144.715 258.01V262H143.567ZM163.157 262.168C162.447 262.168 161.808 262.028 161.239 261.748C160.679 261.468 160.235 261.062 159.909 260.53C159.591 259.998 159.433 259.359 159.433 258.612C159.433 257.847 159.605 257.198 159.951 256.666C160.296 256.134 160.753 255.728 161.323 255.448C161.901 255.168 162.536 255.028 163.227 255.028C163.787 255.028 164.267 255.126 164.669 255.322C165.079 255.518 165.425 255.751 165.704 256.022L165.131 256.764C164.851 256.521 164.561 256.33 164.263 256.19C163.964 256.05 163.633 255.98 163.269 255.98C162.746 255.98 162.284 256.092 161.883 256.316C161.481 256.531 161.169 256.839 160.945 257.24C160.73 257.632 160.623 258.089 160.623 258.612C160.623 259.125 160.73 259.578 160.945 259.97C161.159 260.362 161.463 260.67 161.855 260.894C162.256 261.109 162.718 261.216 163.241 261.216C163.661 261.216 164.043 261.132 164.389 260.964C164.743 260.796 165.061 260.595 165.341 260.362L165.859 261.104C165.485 261.44 165.065 261.701 164.599 261.888C164.141 262.075 163.661 262.168 163.157 262.168ZM170.907 262.168C170.31 262.168 169.754 262.028 169.241 261.748C168.737 261.468 168.326 261.062 168.009 260.53C167.701 259.998 167.547 259.359 167.547 258.612C167.547 257.847 167.701 257.198 168.009 256.666C168.326 256.134 168.737 255.728 169.241 255.448C169.754 255.168 170.31 255.028 170.907 255.028C171.504 255.028 172.055 255.168 172.559 255.448C173.072 255.728 173.483 256.134 173.791 256.666C174.108 257.198 174.267 257.847 174.267 258.612C174.267 259.359 174.108 259.998 173.791 260.53C173.483 261.062 173.072 261.468 172.559 261.748C172.055 262.028 171.504 262.168 170.907 262.168ZM170.907 261.216C171.346 261.216 171.728 261.109 172.055 260.894C172.382 260.67 172.634 260.362 172.811 259.97C172.988 259.578 173.077 259.125 173.077 258.612C173.077 258.089 172.988 257.632 172.811 257.24C172.634 256.839 172.382 256.531 172.055 256.316C171.728 256.092 171.346 255.98 170.907 255.98C170.468 255.98 170.086 256.092 169.759 256.316C169.442 256.531 169.19 256.839 169.003 257.24C168.826 257.632 168.737 258.089 168.737 258.612C168.737 259.125 168.826 259.578 169.003 259.97C169.19 260.362 169.442 260.67 169.759 260.894C170.086 261.109 170.468 261.216 170.907 261.216ZM176.404 262V255.196H177.356L177.454 256.358H177.51C177.864 255.975 178.247 255.658 178.658 255.406C179.068 255.154 179.54 255.028 180.072 255.028C180.874 255.028 181.467 255.261 181.85 255.728C182.232 256.195 182.424 256.876 182.424 257.772V262H181.276V257.926C181.276 257.282 181.154 256.806 180.912 256.498C180.669 256.181 180.268 256.022 179.708 256.022C179.306 256.022 178.947 256.125 178.63 256.33C178.312 256.535 177.953 256.843 177.552 257.254V262H176.404ZM189.012 262.168C188.349 262.168 187.827 262.051 187.444 261.818C187.061 261.575 186.786 261.244 186.618 260.824C186.459 260.404 186.38 259.914 186.38 259.354V256.134H184.462V255.266L186.422 255.196L186.576 253.012H187.528V255.196H190.874V256.134H187.528V259.368C187.528 259.769 187.579 260.11 187.682 260.39C187.785 260.67 187.962 260.88 188.214 261.02C188.466 261.16 188.811 261.23 189.25 261.23C189.577 261.23 189.871 261.202 190.132 261.146C190.393 261.09 190.645 261.015 190.888 260.922L191.14 261.762C190.832 261.874 190.505 261.967 190.16 262.042C189.824 262.126 189.441 262.168 189.012 262.168ZM196.511 262.168C195.829 262.168 195.209 262.028 194.649 261.748C194.098 261.468 193.659 261.062 193.333 260.53C193.006 259.989 192.843 259.34 192.843 258.584C192.843 257.847 193.006 257.212 193.333 256.68C193.659 256.148 194.084 255.742 194.607 255.462C195.139 255.173 195.708 255.028 196.315 255.028C196.968 255.028 197.523 255.163 197.981 255.434C198.447 255.695 198.802 256.064 199.045 256.54C199.297 257.016 199.423 257.576 199.423 258.22C199.423 258.351 199.418 258.477 199.409 258.598C199.399 258.719 199.385 258.827 199.367 258.92H193.613V258.024H198.681L198.387 258.346C198.387 257.543 198.2 256.941 197.827 256.54C197.463 256.139 196.968 255.938 196.343 255.938C195.923 255.938 195.531 256.041 195.167 256.246C194.812 256.451 194.527 256.75 194.313 257.142C194.098 257.534 193.991 258.015 193.991 258.584C193.991 259.172 194.107 259.662 194.341 260.054C194.574 260.446 194.891 260.745 195.293 260.95C195.694 261.146 196.147 261.244 196.651 261.244C197.061 261.244 197.43 261.188 197.757 261.076C198.093 260.955 198.415 260.796 198.723 260.6L199.143 261.356C198.807 261.58 198.419 261.771 197.981 261.93C197.551 262.089 197.061 262.168 196.511 262.168ZM201.587 262V255.196H202.539L202.637 256.358H202.693C203.048 255.975 203.43 255.658 203.841 255.406C204.252 255.154 204.723 255.028 205.255 255.028C206.058 255.028 206.65 255.261 207.033 255.728C207.416 256.195 207.607 256.876 207.607 257.772V262H206.459V257.926C206.459 257.282 206.338 256.806 206.095 256.498C205.852 256.181 205.451 256.022 204.891 256.022C204.49 256.022 204.13 256.125 203.813 256.33C203.496 256.535 203.136 256.843 202.735 257.254V262H201.587ZM214.196 262.168C213.533 262.168 213.01 262.051 212.628 261.818C212.245 261.575 211.97 261.244 211.802 260.824C211.643 260.404 211.564 259.914 211.564 259.354V256.134H209.646V255.266L211.606 255.196L211.76 253.012H212.712V255.196H216.058V256.134H212.712V259.368C212.712 259.769 212.763 260.11 212.866 260.39C212.968 260.67 213.146 260.88 213.398 261.02C213.65 261.16 213.995 261.23 214.434 261.23C214.76 261.23 215.054 261.202 215.316 261.146C215.577 261.09 215.829 261.015 216.072 260.922L216.324 261.762C216.016 261.874 215.689 261.967 215.344 262.042C215.008 262.126 214.625 262.168 214.196 262.168ZM226.771 262V252.032H227.919V254.748L227.849 256.358H227.891C228.236 255.985 228.614 255.672 229.025 255.42C229.435 255.159 229.907 255.028 230.439 255.028C231.241 255.028 231.834 255.261 232.217 255.728C232.599 256.195 232.791 256.876 232.791 257.772V262H231.643V257.926C231.643 257.282 231.521 256.806 231.279 256.498C231.036 256.181 230.635 256.022 230.075 256.022C229.673 256.022 229.314 256.125 228.997 256.33C228.679 256.535 228.32 256.843 227.919 257.254V262H226.771ZM238.483 262.168C237.802 262.168 237.181 262.028 236.621 261.748C236.071 261.468 235.632 261.062 235.305 260.53C234.979 259.989 234.815 259.34 234.815 258.584C234.815 257.847 234.979 257.212 235.305 256.68C235.632 256.148 236.057 255.742 236.579 255.462C237.111 255.173 237.681 255.028 238.287 255.028C238.941 255.028 239.496 255.163 239.953 255.434C240.42 255.695 240.775 256.064 241.017 256.54C241.269 257.016 241.395 257.576 241.395 258.22C241.395 258.351 241.391 258.477 241.381 258.598C241.372 258.719 241.358 258.827 241.339 258.92H235.585V258.024H240.653L240.359 258.346C240.359 257.543 240.173 256.941 239.799 256.54C239.435 256.139 238.941 255.938 238.315 255.938C237.895 255.938 237.503 256.041 237.139 256.246C236.785 256.451 236.5 256.75 236.285 257.142C236.071 257.534 235.963 258.015 235.963 258.584C235.963 259.172 236.08 259.662 236.313 260.054C236.547 260.446 236.864 260.745 237.265 260.95C237.667 261.146 238.119 261.244 238.623 261.244C239.034 261.244 239.403 261.188 239.729 261.076C240.065 260.955 240.387 260.796 240.695 260.6L241.115 261.356C240.779 261.58 240.392 261.771 239.953 261.93C239.524 262.089 239.034 262.168 238.483 262.168ZM244.302 262V255.196H245.254L245.352 256.806H245.394C245.748 256.255 246.187 255.821 246.71 255.504C247.232 255.187 247.806 255.028 248.432 255.028C248.684 255.028 248.917 255.051 249.132 255.098C249.356 255.135 249.57 255.205 249.776 255.308L249.51 256.302C249.276 256.218 249.076 256.157 248.908 256.12C248.74 256.083 248.52 256.064 248.25 256.064C247.736 256.064 247.242 256.213 246.766 256.512C246.299 256.801 245.86 257.301 245.45 258.01V262H244.302ZM255.272 262.168C254.591 262.168 253.97 262.028 253.41 261.748C252.86 261.468 252.421 261.062 252.094 260.53C251.768 259.989 251.604 259.34 251.604 258.584C251.604 257.847 251.768 257.212 252.094 256.68C252.421 256.148 252.846 255.742 253.368 255.462C253.9 255.173 254.47 255.028 255.076 255.028C255.73 255.028 256.285 255.163 256.742 255.434C257.209 255.695 257.564 256.064 257.806 256.54C258.058 257.016 258.184 257.576 258.184 258.22C258.184 258.351 258.18 258.477 258.17 258.598C258.161 258.719 258.147 258.827 258.128 258.92H252.374V258.024H257.442L257.148 258.346C257.148 257.543 256.962 256.941 256.588 256.54C256.224 256.139 255.73 255.938 255.104 255.938C254.684 255.938 254.292 256.041 253.928 256.246C253.574 256.451 253.289 256.75 253.074 257.142C252.86 257.534 252.752 258.015 252.752 258.584C252.752 259.172 252.869 259.662 253.102 260.054C253.336 260.446 253.653 260.745 254.054 260.95C254.456 261.146 254.908 261.244 255.412 261.244C255.823 261.244 256.192 261.188 256.518 261.076C256.854 260.955 257.176 260.796 257.484 260.6L257.904 261.356C257.568 261.58 257.181 261.771 256.742 261.93C256.313 262.089 255.823 262.168 255.272 262.168ZM263.247 262.168C262.939 262.168 262.673 262.061 262.449 261.846C262.225 261.622 262.113 261.337 262.113 260.992C262.113 260.637 262.225 260.353 262.449 260.138C262.673 259.914 262.939 259.802 263.247 259.802C263.564 259.802 263.83 259.914 264.045 260.138C264.269 260.353 264.381 260.637 264.381 260.992C264.381 261.337 264.269 261.622 264.045 261.846C263.83 262.061 263.564 262.168 263.247 262.168ZM25.372 280V270.816H26.548V275.422H26.59L30.454 270.816H31.784L26.548 277.074V280H25.372ZM30.804 280L27.962 274.876L28.676 273.952L32.12 280H30.804ZM37.0145 280.168C36.3332 280.168 35.7125 280.028 35.1525 279.748C34.6019 279.468 34.1632 279.062 33.8365 278.53C33.5099 277.989 33.3465 277.34 33.3465 276.584C33.3465 275.847 33.5099 275.212 33.8365 274.68C34.1632 274.148 34.5879 273.742 35.1105 273.462C35.6425 273.173 36.2119 273.028 36.8185 273.028C37.4719 273.028 38.0272 273.163 38.4845 273.434C38.9512 273.695 39.3059 274.064 39.5485 274.54C39.8005 275.016 39.9265 275.576 39.9265 276.22C39.9265 276.351 39.9219 276.477 39.9125 276.598C39.9032 276.719 39.8892 276.827 39.8705 276.92H34.1165V276.024H39.1845L38.8905 276.346C38.8905 275.543 38.7039 274.941 38.3305 274.54C37.9665 274.139 37.4719 273.938 36.8465 273.938C36.4265 273.938 36.0345 274.041 35.6705 274.246C35.3159 274.451 35.0312 274.75 34.8165 275.142C34.6019 275.534 34.4945 276.015 34.4945 276.584C34.4945 277.172 34.6112 277.662 34.8445 278.054C35.0779 278.446 35.3952 278.745 35.7965 278.95C36.1979 279.146 36.6505 279.244 37.1545 279.244C37.5652 279.244 37.9339 279.188 38.2605 279.076C38.5965 278.955 38.9185 278.796 39.2265 278.6L39.6465 279.356C39.3105 279.58 38.9232 279.771 38.4845 279.93C38.0552 280.089 37.5652 280.168 37.0145 280.168ZM45.4091 280.168C44.7277 280.168 44.1071 280.028 43.5471 279.748C42.9964 279.468 42.5577 279.062 42.2311 278.53C41.9044 277.989 41.7411 277.34 41.7411 276.584C41.7411 275.847 41.9044 275.212 42.2311 274.68C42.5577 274.148 42.9824 273.742 43.5051 273.462C44.0371 273.173 44.6064 273.028 45.2131 273.028C45.8664 273.028 46.4217 273.163 46.8791 273.434C47.3457 273.695 47.7004 274.064 47.9431 274.54C48.1951 275.016 48.3211 275.576 48.3211 276.22C48.3211 276.351 48.3164 276.477 48.3071 276.598C48.2977 276.719 48.2837 276.827 48.2651 276.92H42.5111V276.024H47.5791L47.2851 276.346C47.2851 275.543 47.0984 274.941 46.7251 274.54C46.3611 274.139 45.8664 273.938 45.2411 273.938C44.8211 273.938 44.4291 274.041 44.0651 274.246C43.7104 274.451 43.4257 274.75 43.2111 275.142C42.9964 275.534 42.8891 276.015 42.8891 276.584C42.8891 277.172 43.0057 277.662 43.2391 278.054C43.4724 278.446 43.7897 278.745 44.1911 278.95C44.5924 279.146 45.0451 279.244 45.5491 279.244C45.9597 279.244 46.3284 279.188 46.6551 279.076C46.9911 278.955 47.3131 278.796 47.6211 278.6L48.0411 279.356C47.7051 279.58 47.3177 279.771 46.8791 279.93C46.4497 280.089 45.9597 280.168 45.4091 280.168ZM50.4856 282.87V273.196H51.4376L51.5356 274.064H51.5776C51.8949 273.765 52.2589 273.518 52.6696 273.322C53.0896 273.126 53.5096 273.028 53.9296 273.028C54.5456 273.028 55.0589 273.173 55.4696 273.462C55.8896 273.742 56.2069 274.143 56.4216 274.666C56.6363 275.179 56.7436 275.791 56.7436 276.5C56.7436 277.265 56.5989 277.923 56.3096 278.474C56.0203 279.025 55.6423 279.445 55.1756 279.734C54.7089 280.023 54.2003 280.168 53.6496 280.168C53.3416 280.168 53.0009 280.093 52.6276 279.944C52.2636 279.785 51.9276 279.566 51.6196 279.286H51.5776L51.6336 280.574V282.87H50.4856ZM53.4536 279.202C53.8549 279.202 54.2143 279.095 54.5316 278.88C54.8489 278.665 55.0963 278.357 55.2736 277.956C55.4603 277.545 55.5536 277.06 55.5536 276.5C55.5536 276.005 55.4883 275.571 55.3576 275.198C55.2269 274.815 55.0216 274.521 54.7416 274.316C54.4616 274.101 54.0929 273.994 53.6356 273.994C53.3276 273.994 53.0009 274.078 52.6556 274.246C52.3196 274.405 51.9789 274.661 51.6336 275.016V278.404C51.9603 278.693 52.2869 278.899 52.6136 279.02C52.9496 279.141 53.2296 279.202 53.4536 279.202ZM70.3967 280V274.134H67.2327V273.196H71.5447V280H70.3967ZM70.8447 271.768C70.5833 271.768 70.364 271.689 70.1867 271.53C70.0093 271.362 69.9207 271.143 69.9207 270.872C69.9207 270.601 70.0093 270.387 70.1867 270.228C70.364 270.06 70.5833 269.976 70.8447 269.976C71.106 269.976 71.3253 270.06 71.5027 270.228C71.68 270.387 71.7687 270.601 71.7687 270.872C71.7687 271.143 71.68 271.362 71.5027 271.53C71.3253 271.689 71.106 271.768 70.8447 271.768ZM79.8832 280.168C79.2205 280.168 78.6979 280.051 78.3152 279.818C77.9325 279.575 77.6572 279.244 77.4892 278.824C77.3305 278.404 77.2512 277.914 77.2512 277.354V274.134H75.3332V273.266L77.2932 273.196L77.4472 271.012H78.3992V273.196H81.7452V274.134H78.3992V277.368C78.3992 277.769 78.4505 278.11 78.5532 278.39C78.6559 278.67 78.8332 278.88 79.0852 279.02C79.3372 279.16 79.6825 279.23 80.1212 279.23C80.4479 279.23 80.7419 279.202 81.0032 279.146C81.2645 279.09 81.5165 279.015 81.7592 278.922L82.0112 279.762C81.7032 279.874 81.3765 279.967 81.0312 280.042C80.6952 280.126 80.3125 280.168 79.8832 280.168ZM95.4963 280.168C94.8336 280.168 94.2129 280.061 93.6343 279.846C93.0556 279.631 92.5609 279.384 92.1503 279.104L92.6823 278.348C93.0743 278.628 93.5083 278.852 93.9843 279.02C94.4603 279.188 95.0109 279.272 95.6363 279.272C96.2149 279.272 96.6443 279.165 96.9243 278.95C97.2136 278.735 97.3583 278.488 97.3583 278.208C97.3583 278.077 97.3303 277.956 97.2743 277.844C97.2276 277.732 97.1296 277.625 96.9803 277.522C96.8403 277.419 96.6303 277.321 96.3503 277.228C96.0703 277.135 95.6969 277.041 95.2303 276.948C94.3436 276.761 93.6763 276.509 93.2283 276.192C92.7896 275.875 92.5703 275.464 92.5703 274.96C92.5703 274.409 92.8083 273.952 93.2843 273.588C93.7603 273.215 94.4649 273.028 95.3983 273.028C95.9209 273.028 96.4249 273.117 96.9103 273.294C97.3956 273.462 97.8063 273.663 98.1423 273.896L97.5823 274.638C97.2743 274.414 96.9243 274.241 96.5323 274.12C96.1403 273.989 95.7296 273.924 95.3003 273.924C94.9083 273.924 94.5956 273.971 94.3623 274.064C94.1383 274.148 93.9749 274.265 93.8723 274.414C93.7789 274.563 93.7323 274.727 93.7323 274.904C93.7323 275.193 93.8863 275.422 94.1943 275.59C94.5116 275.749 95.0156 275.898 95.7063 276.038C96.4623 276.197 97.0409 276.374 97.4423 276.57C97.8529 276.766 98.1329 276.99 98.2823 277.242C98.4409 277.494 98.5203 277.793 98.5203 278.138C98.5203 278.511 98.4036 278.852 98.1703 279.16C97.9369 279.459 97.5963 279.701 97.1483 279.888C96.7003 280.075 96.1496 280.168 95.4963 280.168ZM100.853 280V270.032H102.001V272.748L101.931 274.358H101.973C102.318 273.985 102.696 273.672 103.107 273.42C103.517 273.159 103.989 273.028 104.521 273.028C105.323 273.028 105.916 273.261 106.299 273.728C106.681 274.195 106.873 274.876 106.873 275.772V280H105.725V275.926C105.725 275.282 105.603 274.806 105.361 274.498C105.118 274.181 104.717 274.022 104.157 274.022C103.755 274.022 103.396 274.125 103.079 274.33C102.761 274.535 102.402 274.843 102.001 275.254V280H100.853ZM112.145 280.168C111.548 280.168 110.993 280.028 110.479 279.748C109.975 279.468 109.565 279.062 109.247 278.53C108.939 277.998 108.785 277.359 108.785 276.612C108.785 275.847 108.939 275.198 109.247 274.666C109.565 274.134 109.975 273.728 110.479 273.448C110.993 273.168 111.548 273.028 112.145 273.028C112.743 273.028 113.293 273.168 113.797 273.448C114.311 273.728 114.721 274.134 115.029 274.666C115.347 275.198 115.505 275.847 115.505 276.612C115.505 277.359 115.347 277.998 115.029 278.53C114.721 279.062 114.311 279.468 113.797 279.748C113.293 280.028 112.743 280.168 112.145 280.168ZM112.145 279.216C112.584 279.216 112.967 279.109 113.293 278.894C113.62 278.67 113.872 278.362 114.049 277.97C114.227 277.578 114.315 277.125 114.315 276.612C114.315 276.089 114.227 275.632 114.049 275.24C113.872 274.839 113.62 274.531 113.293 274.316C112.967 274.092 112.584 273.98 112.145 273.98C111.707 273.98 111.324 274.092 110.997 274.316C110.68 274.531 110.428 274.839 110.241 275.24C110.064 275.632 109.975 276.089 109.975 276.612C109.975 277.125 110.064 277.578 110.241 277.97C110.428 278.362 110.68 278.67 110.997 278.894C111.324 279.109 111.707 279.216 112.145 279.216ZM118.384 280V273.196H119.336L119.434 274.806H119.476C119.831 274.255 120.269 273.821 120.792 273.504C121.315 273.187 121.889 273.028 122.514 273.028C122.766 273.028 122.999 273.051 123.214 273.098C123.438 273.135 123.653 273.205 123.858 273.308L123.592 274.302C123.359 274.218 123.158 274.157 122.99 274.12C122.822 274.083 122.603 274.064 122.332 274.064C121.819 274.064 121.324 274.213 120.848 274.512C120.381 274.801 119.943 275.301 119.532 276.01V280H118.384ZM130.25 280.168C129.588 280.168 129.065 280.051 128.682 279.818C128.3 279.575 128.024 279.244 127.856 278.824C127.698 278.404 127.618 277.914 127.618 277.354V274.134H125.7V273.266L127.66 273.196L127.814 271.012H128.766V273.196H132.112V274.134H128.766V277.368C128.766 277.769 128.818 278.11 128.92 278.39C129.023 278.67 129.2 278.88 129.452 279.02C129.704 279.16 130.05 279.23 130.488 279.23C130.815 279.23 131.109 279.202 131.37 279.146C131.632 279.09 131.884 279.015 132.126 278.922L132.378 279.762C132.07 279.874 131.744 279.967 131.398 280.042C131.062 280.126 130.68 280.168 130.25 280.168ZM144.967 280.168C144.547 280.168 144.16 280.093 143.805 279.944C143.451 279.785 143.171 279.561 142.965 279.272C142.76 278.983 142.657 278.637 142.657 278.236C142.657 277.471 143.04 276.892 143.805 276.5C144.571 276.099 145.831 275.828 147.585 275.688C147.576 275.38 147.511 275.095 147.389 274.834C147.277 274.573 147.091 274.367 146.829 274.218C146.568 274.059 146.218 273.98 145.779 273.98C145.49 273.98 145.201 274.022 144.911 274.106C144.631 274.181 144.361 274.283 144.099 274.414C143.847 274.535 143.614 274.661 143.399 274.792L142.951 274.008C143.175 273.859 143.446 273.709 143.763 273.56C144.09 273.401 144.44 273.275 144.813 273.182C145.187 273.079 145.574 273.028 145.975 273.028C146.601 273.028 147.114 273.145 147.515 273.378C147.926 273.611 148.229 273.938 148.425 274.358C148.631 274.769 148.733 275.259 148.733 275.828V280H147.795L147.697 279.076H147.655C147.282 279.375 146.862 279.631 146.395 279.846C145.929 280.061 145.453 280.168 144.967 280.168ZM145.275 279.244C145.667 279.244 146.055 279.155 146.437 278.978C146.82 278.801 147.203 278.553 147.585 278.236V276.444C146.615 276.528 145.849 276.645 145.289 276.794C144.739 276.943 144.347 277.135 144.113 277.368C143.889 277.592 143.777 277.853 143.777 278.152C143.777 278.404 143.847 278.614 143.987 278.782C144.127 278.941 144.309 279.057 144.533 279.132C144.767 279.207 145.014 279.244 145.275 279.244ZM151.22 280V273.196H152.172L152.27 274.358H152.326C152.681 273.975 153.063 273.658 153.474 273.406C153.885 273.154 154.356 273.028 154.888 273.028C155.691 273.028 156.283 273.261 156.666 273.728C157.049 274.195 157.24 274.876 157.24 275.772V280H156.092V275.926C156.092 275.282 155.971 274.806 155.728 274.498C155.485 274.181 155.084 274.022 154.524 274.022C154.123 274.022 153.763 274.125 153.446 274.33C153.129 274.535 152.769 274.843 152.368 275.254V280H151.22ZM162.107 280.168C161.22 280.168 160.506 279.86 159.965 279.244C159.423 278.619 159.153 277.741 159.153 276.612C159.153 275.875 159.297 275.24 159.587 274.708C159.885 274.167 160.268 273.751 160.735 273.462C161.211 273.173 161.715 273.028 162.247 273.028C162.648 273.028 163.012 273.107 163.339 273.266C163.675 273.415 163.987 273.63 164.277 273.91H164.319L164.263 272.65V270.032H165.411V280H164.459L164.361 279.104H164.319C164.048 279.393 163.717 279.645 163.325 279.86C162.942 280.065 162.536 280.168 162.107 280.168ZM162.345 279.202C162.681 279.202 163.007 279.118 163.325 278.95C163.642 278.773 163.955 278.516 164.263 278.18V274.792C163.955 274.503 163.651 274.297 163.353 274.176C163.063 274.055 162.769 273.994 162.471 273.994C162.079 273.994 161.719 274.106 161.393 274.33C161.075 274.545 160.819 274.848 160.623 275.24C160.436 275.623 160.343 276.075 160.343 276.598C160.343 277.41 160.52 278.049 160.875 278.516C161.229 278.973 161.719 279.202 162.345 279.202ZM179.442 280.168C178.779 280.168 178.158 280.061 177.58 279.846C177.001 279.631 176.506 279.384 176.096 279.104L176.628 278.348C177.02 278.628 177.454 278.852 177.93 279.02C178.406 279.188 178.956 279.272 179.582 279.272C180.16 279.272 180.59 279.165 180.87 278.95C181.159 278.735 181.304 278.488 181.304 278.208C181.304 278.077 181.276 277.956 181.22 277.844C181.173 277.732 181.075 277.625 180.926 277.522C180.786 277.419 180.576 277.321 180.296 277.228C180.016 277.135 179.642 277.041 179.176 276.948C178.289 276.761 177.622 276.509 177.174 276.192C176.735 275.875 176.516 275.464 176.516 274.96C176.516 274.409 176.754 273.952 177.23 273.588C177.706 273.215 178.41 273.028 179.344 273.028C179.866 273.028 180.37 273.117 180.856 273.294C181.341 273.462 181.752 273.663 182.088 273.896L181.528 274.638C181.22 274.414 180.87 274.241 180.478 274.12C180.086 273.989 179.675 273.924 179.246 273.924C178.854 273.924 178.541 273.971 178.308 274.064C178.084 274.148 177.92 274.265 177.818 274.414C177.724 274.563 177.678 274.727 177.678 274.904C177.678 275.193 177.832 275.422 178.14 275.59C178.457 275.749 178.961 275.898 179.652 276.038C180.408 276.197 180.986 276.374 181.388 276.57C181.798 276.766 182.078 276.99 182.228 277.242C182.386 277.494 182.466 277.793 182.466 278.138C182.466 278.511 182.349 278.852 182.116 279.16C181.882 279.459 181.542 279.701 181.094 279.888C180.646 280.075 180.095 280.168 179.442 280.168ZM187.92 280V274.134H184.756V273.196H189.068V280H187.92ZM188.368 271.768C188.107 271.768 187.887 271.689 187.71 271.53C187.533 271.362 187.444 271.143 187.444 270.872C187.444 270.601 187.533 270.387 187.71 270.228C187.887 270.06 188.107 269.976 188.368 269.976C188.629 269.976 188.849 270.06 189.026 270.228C189.203 270.387 189.292 270.601 189.292 270.872C189.292 271.143 189.203 271.362 189.026 271.53C188.849 271.689 188.629 271.768 188.368 271.768ZM192.703 280V273.196H193.627L193.725 274.092H193.753C193.93 273.775 194.135 273.518 194.369 273.322C194.602 273.126 194.915 273.028 195.307 273.028C195.643 273.028 195.918 273.126 196.133 273.322C196.347 273.518 196.501 273.812 196.595 274.204C196.791 273.84 197.005 273.555 197.239 273.35C197.481 273.135 197.799 273.028 198.191 273.028C198.667 273.028 199.035 273.21 199.297 273.574C199.567 273.929 199.703 274.447 199.703 275.128V280H198.555V275.212C198.555 274.419 198.312 274.022 197.827 274.022C197.593 274.022 197.397 274.111 197.239 274.288C197.089 274.456 196.921 274.717 196.735 275.072V280H195.671V275.212C195.671 274.82 195.615 274.526 195.503 274.33C195.4 274.125 195.223 274.022 194.971 274.022C194.737 274.022 194.532 274.111 194.355 274.288C194.187 274.456 194.019 274.717 193.851 275.072V280H192.703ZM201.587 282.87V273.196H202.539L202.637 274.064H202.679C202.996 273.765 203.36 273.518 203.771 273.322C204.191 273.126 204.611 273.028 205.031 273.028C205.647 273.028 206.16 273.173 206.571 273.462C206.991 273.742 207.308 274.143 207.523 274.666C207.738 275.179 207.845 275.791 207.845 276.5C207.845 277.265 207.7 277.923 207.411 278.474C207.122 279.025 206.744 279.445 206.277 279.734C205.81 280.023 205.302 280.168 204.751 280.168C204.443 280.168 204.102 280.093 203.729 279.944C203.365 279.785 203.029 279.566 202.721 279.286H202.679L202.735 280.574V282.87H201.587ZM204.555 279.202C204.956 279.202 205.316 279.095 205.633 278.88C205.95 278.665 206.198 278.357 206.375 277.956C206.562 277.545 206.655 277.06 206.655 276.5C206.655 276.005 206.59 275.571 206.459 275.198C206.328 274.815 206.123 274.521 205.843 274.316C205.563 274.101 205.194 273.994 204.737 273.994C204.429 273.994 204.102 274.078 203.757 274.246C203.421 274.405 203.08 274.661 202.735 275.016V278.404C203.062 278.693 203.388 278.899 203.715 279.02C204.051 279.141 204.331 279.202 204.555 279.202ZM214.364 280.168C213.645 280.168 213.094 279.963 212.712 279.552C212.329 279.132 212.138 278.521 212.138 277.718V270.97H209.814V270.032H213.286V277.802C213.286 278.297 213.407 278.656 213.65 278.88C213.892 279.104 214.214 279.216 214.616 279.216C214.812 279.216 215.012 279.193 215.218 279.146C215.423 279.09 215.652 279.006 215.904 278.894L216.198 279.762C215.89 279.874 215.6 279.967 215.33 280.042C215.059 280.126 214.737 280.168 214.364 280.168ZM221.694 280.168C221.013 280.168 220.392 280.028 219.832 279.748C219.282 279.468 218.843 279.062 218.516 278.53C218.19 277.989 218.026 277.34 218.026 276.584C218.026 275.847 218.19 275.212 218.516 274.68C218.843 274.148 219.268 273.742 219.79 273.462C220.322 273.173 220.892 273.028 221.498 273.028C222.152 273.028 222.707 273.163 223.164 273.434C223.631 273.695 223.986 274.064 224.228 274.54C224.48 275.016 224.606 275.576 224.606 276.22C224.606 276.351 224.602 276.477 224.592 276.598C224.583 276.719 224.569 276.827 224.55 276.92H218.796V276.024H223.864L223.57 276.346C223.57 275.543 223.384 274.941 223.01 274.54C222.646 274.139 222.152 273.938 221.526 273.938C221.106 273.938 220.714 274.041 220.35 274.246C219.996 274.451 219.711 274.75 219.496 275.142C219.282 275.534 219.174 276.015 219.174 276.584C219.174 277.172 219.291 277.662 219.524 278.054C219.758 278.446 220.075 278.745 220.476 278.95C220.878 279.146 221.33 279.244 221.834 279.244C222.245 279.244 222.614 279.188 222.94 279.076C223.276 278.955 223.598 278.796 223.906 278.6L224.326 279.356C223.99 279.58 223.603 279.771 223.164 279.93C222.735 280.089 222.245 280.168 221.694 280.168ZM229.669 280.168C229.361 280.168 229.095 280.061 228.871 279.846C228.647 279.622 228.535 279.337 228.535 278.992C228.535 278.637 228.647 278.353 228.871 278.138C229.095 277.914 229.361 277.802 229.669 277.802C229.986 277.802 230.252 277.914 230.467 278.138C230.691 278.353 230.803 278.637 230.803 278.992C230.803 279.337 230.691 279.622 230.467 279.846C230.252 280.061 229.986 280.168 229.669 280.168ZM242.706 280L245.8 270.816H247.116L250.21 280H248.978L247.382 274.862C247.223 274.349 247.064 273.84 246.906 273.336C246.756 272.823 246.612 272.3 246.472 271.768H246.416C246.266 272.3 246.117 272.823 245.968 273.336C245.818 273.84 245.664 274.349 245.506 274.862L243.896 280H242.706ZM244.33 277.2V276.262H248.544V277.2H244.33ZM251.954 280V273.196H252.906L253.004 274.358H253.06C253.415 273.975 253.798 273.658 254.208 273.406C254.619 273.154 255.09 273.028 255.622 273.028C256.425 273.028 257.018 273.261 257.4 273.728C257.783 274.195 257.974 274.876 257.974 275.772V280H256.826V275.926C256.826 275.282 256.705 274.806 256.462 274.498C256.22 274.181 255.818 274.022 255.258 274.022C254.857 274.022 254.498 274.125 254.18 274.33C253.863 274.535 253.504 274.843 253.102 275.254V280H251.954ZM262.841 280.168C261.954 280.168 261.24 279.86 260.699 279.244C260.158 278.619 259.887 277.741 259.887 276.612C259.887 275.875 260.032 275.24 260.321 274.708C260.62 274.167 261.002 273.751 261.469 273.462C261.945 273.173 262.449 273.028 262.981 273.028C263.382 273.028 263.746 273.107 264.073 273.266C264.409 273.415 264.722 273.63 265.011 273.91H265.053L264.997 272.65V270.032H266.145V280H265.193L265.095 279.104H265.053C264.782 279.393 264.451 279.645 264.059 279.86C263.676 280.065 263.27 280.168 262.841 280.168ZM263.079 279.202C263.415 279.202 263.742 279.118 264.059 278.95C264.376 278.773 264.689 278.516 264.997 278.18V274.792C264.689 274.503 264.386 274.297 264.087 274.176C263.798 274.055 263.504 273.994 263.205 273.994C262.813 273.994 262.454 274.106 262.127 274.33C261.81 274.545 261.553 274.848 261.357 275.24C261.17 275.623 261.077 276.075 261.077 276.598C261.077 277.41 261.254 278.049 261.609 278.516C261.964 278.973 262.454 279.202 263.079 279.202ZM28.34 298.168C27.6773 298.168 27.0567 298.061 26.478 297.846C25.8993 297.631 25.4047 297.384 24.994 297.104L25.526 296.348C25.918 296.628 26.352 296.852 26.828 297.02C27.304 297.188 27.8547 297.272 28.48 297.272C29.0587 297.272 29.488 297.165 29.768 296.95C30.0573 296.735 30.202 296.488 30.202 296.208C30.202 296.077 30.174 295.956 30.118 295.844C30.0713 295.732 29.9733 295.625 29.824 295.522C29.684 295.419 29.474 295.321 29.194 295.228C28.914 295.135 28.5407 295.041 28.074 294.948C27.1873 294.761 26.52 294.509 26.072 294.192C25.6333 293.875 25.414 293.464 25.414 292.96C25.414 292.409 25.652 291.952 26.128 291.588C26.604 291.215 27.3087 291.028 28.242 291.028C28.7647 291.028 29.2687 291.117 29.754 291.294C30.2393 291.462 30.65 291.663 30.986 291.896L30.426 292.638C30.118 292.414 29.768 292.241 29.376 292.12C28.984 291.989 28.5733 291.924 28.144 291.924C27.752 291.924 27.4393 291.971 27.206 292.064C26.982 292.148 26.8187 292.265 26.716 292.414C26.6227 292.563 26.576 292.727 26.576 292.904C26.576 293.193 26.73 293.422 27.038 293.59C27.3553 293.749 27.8593 293.898 28.55 294.038C29.306 294.197 29.8847 294.374 30.286 294.57C30.6967 294.766 30.9767 294.99 31.126 295.242C31.2847 295.494 31.364 295.793 31.364 296.138C31.364 296.511 31.2473 296.852 31.014 297.16C30.7807 297.459 30.44 297.701 29.992 297.888C29.544 298.075 28.9933 298.168 28.34 298.168ZM33.2065 298V291.196H34.1305L34.2285 292.092H34.2565C34.4339 291.775 34.6392 291.518 34.8725 291.322C35.1059 291.126 35.4185 291.028 35.8105 291.028C36.1465 291.028 36.4219 291.126 36.6365 291.322C36.8512 291.518 37.0052 291.812 37.0985 292.204C37.2945 291.84 37.5092 291.555 37.7425 291.35C37.9852 291.135 38.3025 291.028 38.6945 291.028C39.1705 291.028 39.5392 291.21 39.8005 291.574C40.0712 291.929 40.2065 292.447 40.2065 293.128V298H39.0585V293.212C39.0585 292.419 38.8159 292.022 38.3305 292.022C38.0972 292.022 37.9012 292.111 37.7425 292.288C37.5932 292.456 37.4252 292.717 37.2385 293.072V298H36.1745V293.212C36.1745 292.82 36.1185 292.526 36.0065 292.33C35.9039 292.125 35.7265 292.022 35.4745 292.022C35.2412 292.022 35.0359 292.111 34.8585 292.288C34.6905 292.456 34.5225 292.717 34.3545 293.072V298H33.2065ZM45.2131 298V292.134H42.0491V291.196H46.3611V298H45.2131ZM45.6611 289.768C45.3997 289.768 45.1804 289.689 45.0031 289.53C44.8257 289.362 44.7371 289.143 44.7371 288.872C44.7371 288.601 44.8257 288.387 45.0031 288.228C45.1804 288.06 45.3997 287.976 45.6611 287.976C45.9224 287.976 46.1417 288.06 46.3191 288.228C46.4964 288.387 46.5851 288.601 46.5851 288.872C46.5851 289.143 46.4964 289.362 46.3191 289.53C46.1417 289.689 45.9224 289.768 45.6611 289.768ZM54.8676 298.168C54.1489 298.168 53.5983 297.963 53.2156 297.552C52.8329 297.132 52.6416 296.521 52.6416 295.718V288.97H50.3176V288.032H53.7896V295.802C53.7896 296.297 53.9109 296.656 54.1536 296.88C54.3963 297.104 54.7183 297.216 55.1196 297.216C55.3156 297.216 55.5163 297.193 55.7216 297.146C55.9269 297.09 56.1556 297.006 56.4076 296.894L56.7016 297.762C56.3936 297.874 56.1043 297.967 55.8336 298.042C55.5629 298.126 55.2409 298.168 54.8676 298.168ZM62.1981 298.168C61.5168 298.168 60.8961 298.028 60.3361 297.748C59.7855 297.468 59.3468 297.062 59.0201 296.53C58.6935 295.989 58.5301 295.34 58.5301 294.584C58.5301 293.847 58.6935 293.212 59.0201 292.68C59.3468 292.148 59.7715 291.742 60.2941 291.462C60.8261 291.173 61.3955 291.028 62.0021 291.028C62.6555 291.028 63.2108 291.163 63.6681 291.434C64.1348 291.695 64.4895 292.064 64.7321 292.54C64.9841 293.016 65.1101 293.576 65.1101 294.22C65.1101 294.351 65.1055 294.477 65.0961 294.598C65.0868 294.719 65.0728 294.827 65.0541 294.92H59.3001V294.024H64.3681L64.0741 294.346C64.0741 293.543 63.8875 292.941 63.5141 292.54C63.1501 292.139 62.6555 291.938 62.0301 291.938C61.6101 291.938 61.2181 292.041 60.8541 292.246C60.4995 292.451 60.2148 292.75 60.0001 293.142C59.7855 293.534 59.6781 294.015 59.6781 294.584C59.6781 295.172 59.7948 295.662 60.0281 296.054C60.2615 296.446 60.5788 296.745 60.9801 296.95C61.3815 297.146 61.8341 297.244 62.3381 297.244C62.7488 297.244 63.1175 297.188 63.4441 297.076C63.7801 296.955 64.1021 296.796 64.4101 296.6L64.8301 297.356C64.4941 297.58 64.1068 297.771 63.6681 297.93C63.2388 298.089 62.7488 298.168 62.1981 298.168ZM78.5672 293.156C78.2592 293.156 77.9932 293.049 77.7692 292.834C77.5452 292.61 77.4332 292.325 77.4332 291.98C77.4332 291.625 77.5452 291.341 77.7692 291.126C77.9932 290.902 78.2592 290.79 78.5672 290.79C78.8845 290.79 79.1505 290.902 79.3652 291.126C79.5892 291.341 79.7012 291.625 79.7012 291.98C79.7012 292.325 79.5892 292.61 79.3652 292.834C79.1505 293.049 78.8845 293.156 78.5672 293.156ZM78.5672 298.168C78.2592 298.168 77.9932 298.061 77.7692 297.846C77.5452 297.622 77.4332 297.337 77.4332 296.992C77.4332 296.637 77.5452 296.353 77.7692 296.138C77.9932 295.914 78.2592 295.802 78.5672 295.802C78.8845 295.802 79.1505 295.914 79.3652 296.138C79.5892 296.353 79.7012 296.637 79.7012 296.992C79.7012 297.337 79.5892 297.622 79.3652 297.846C79.1505 298.061 78.8845 298.168 78.5672 298.168ZM85.0997 300.464L84.4697 299.876C85.4031 299.083 86.0937 298.219 86.5417 297.286C86.9897 296.343 87.2137 295.284 87.2137 294.108C87.2137 292.932 86.9897 291.873 86.5417 290.93C86.0937 289.987 85.4031 289.124 84.4697 288.34L85.0997 287.752C86.0797 288.508 86.8497 289.418 87.4097 290.482C87.9697 291.546 88.2497 292.755 88.2497 294.108C88.2497 295.461 87.9697 296.67 87.4097 297.734C86.8497 298.789 86.0797 299.699 85.0997 300.464Z" fill="#FFE4C4" fill-opacity="0.603922"/>
</g>
<g filter="url(#filter1_f_3_12)">
<rect x="24" y="326" width="75" height="34" rx="17" fill="#3C3C43" fill-opacity="0.41"/>
<g filter="url(#filter2_f_3_12)">
<path d="M37.386 348V338.816H39.99C40.6153 338.816 41.1613 338.891 41.628 339.04C42.104 339.189 42.4727 339.427 42.734 339.754C43.0047 340.081 43.14 340.515 43.14 341.056C43.14 341.513 43.0093 341.929 42.748 342.302C42.4867 342.666 42.0807 342.918 41.53 343.058V343.114C42.202 343.217 42.7247 343.45 43.098 343.814C43.4713 344.178 43.658 344.677 43.658 345.312C43.658 345.909 43.5133 346.409 43.224 346.81C42.9347 347.211 42.5287 347.51 42.006 347.706C41.4927 347.902 40.8907 348 40.2 348H37.386ZM38.548 342.68H39.794C40.578 342.68 41.138 342.554 41.474 342.302C41.8193 342.05 41.992 341.667 41.992 341.154C41.992 340.659 41.81 340.309 41.446 340.104C41.0913 339.899 40.5593 339.796 39.85 339.796H38.548V342.68ZM38.548 347.02H40.032C40.816 347.02 41.4227 346.885 41.852 346.614C42.2907 346.334 42.51 345.881 42.51 345.256C42.51 344.687 42.2953 344.281 41.866 344.038C41.446 343.786 40.8347 343.66 40.032 343.66H38.548V347.02ZM47.8385 348.168C47.0265 348.168 46.4292 347.935 46.0465 347.468C45.6639 347.001 45.4725 346.32 45.4725 345.424V341.196H46.6345V345.27C46.6345 345.914 46.7512 346.395 46.9845 346.712C47.2272 347.02 47.6332 347.174 48.2025 347.174C48.5945 347.174 48.9492 347.076 49.2665 346.88C49.5932 346.675 49.9432 346.353 50.3165 345.914V341.196H51.4645V348H50.5265L50.4285 346.81H50.3725C50.0272 347.202 49.6492 347.529 49.2385 347.79C48.8279 348.042 48.3612 348.168 47.8385 348.168ZM58.3051 348.168C57.6424 348.168 57.1197 348.051 56.7371 347.818C56.3544 347.575 56.0791 347.244 55.9111 346.824C55.7524 346.404 55.6731 345.914 55.6731 345.354V342.134H53.7551V341.266L55.7151 341.196L55.8691 339.012H56.8211V341.196H60.1671V342.134H56.8211V345.368C56.8211 345.769 56.8724 346.11 56.9751 346.39C57.0777 346.67 57.2551 346.88 57.5071 347.02C57.7591 347.16 58.1044 347.23 58.5431 347.23C58.8697 347.23 59.1637 347.202 59.4251 347.146C59.6864 347.09 59.9384 347.015 60.1811 346.922L60.4331 347.762C60.1251 347.874 59.7984 347.967 59.4531 348.042C59.1171 348.126 58.7344 348.168 58.3051 348.168ZM66.6996 348.168C66.0369 348.168 65.5143 348.051 65.1316 347.818C64.7489 347.575 64.4736 347.244 64.3056 346.824C64.1469 346.404 64.0676 345.914 64.0676 345.354V342.134H62.1496V341.266L64.1096 341.196L64.2636 339.012H65.2156V341.196H68.5616V342.134H65.2156V345.368C65.2156 345.769 65.2669 346.11 65.3696 346.39C65.4723 346.67 65.6496 346.88 65.9016 347.02C66.1536 347.16 66.4989 347.23 66.9376 347.23C67.2643 347.23 67.5583 347.202 67.8196 347.146C68.0809 347.09 68.3329 347.015 68.5756 346.922L68.8276 347.762C68.5196 347.874 68.1929 347.967 67.8476 348.042C67.5116 348.126 67.1289 348.168 66.6996 348.168ZM73.7781 348.168C73.1808 348.168 72.6255 348.028 72.1121 347.748C71.6081 347.468 71.1975 347.062 70.8801 346.53C70.5721 345.998 70.4181 345.359 70.4181 344.612C70.4181 343.847 70.5721 343.198 70.8801 342.666C71.1975 342.134 71.6081 341.728 72.1121 341.448C72.6255 341.168 73.1808 341.028 73.7781 341.028C74.3755 341.028 74.9261 341.168 75.4301 341.448C75.9435 341.728 76.3541 342.134 76.6621 342.666C76.9795 343.198 77.1381 343.847 77.1381 344.612C77.1381 345.359 76.9795 345.998 76.6621 346.53C76.3541 347.062 75.9435 347.468 75.4301 347.748C74.9261 348.028 74.3755 348.168 73.7781 348.168ZM73.7781 347.216C74.2168 347.216 74.5995 347.109 74.9261 346.894C75.2528 346.67 75.5048 346.362 75.6821 345.97C75.8595 345.578 75.9481 345.125 75.9481 344.612C75.9481 344.089 75.8595 343.632 75.6821 343.24C75.5048 342.839 75.2528 342.531 74.9261 342.316C74.5995 342.092 74.2168 341.98 73.7781 341.98C73.3395 341.98 72.9568 342.092 72.6301 342.316C72.3128 342.531 72.0608 342.839 71.8741 343.24C71.6968 343.632 71.6081 344.089 71.6081 344.612C71.6081 345.125 71.6968 345.578 71.8741 345.97C72.0608 346.362 72.3128 346.67 72.6301 346.894C72.9568 347.109 73.3395 347.216 73.7781 347.216ZM79.2747 348V341.196H80.2267L80.3247 342.358H80.3807C80.7353 341.975 81.118 341.658 81.5287 341.406C81.9393 341.154 82.4107 341.028 82.9427 341.028C83.7453 341.028 84.338 341.261 84.7207 341.728C85.1033 342.195 85.2947 342.876 85.2947 343.772V348H84.1467V343.926C84.1467 343.282 84.0253 342.806 83.7827 342.498C83.54 342.181 83.1387 342.022 82.5787 342.022C82.1773 342.022 81.818 342.125 81.5007 342.33C81.1833 342.535 80.824 342.843 80.4227 343.254V348H79.2747Z" fill="#FFE4C4" fill-opacity="0.603922"/>
</g>
</g>
</g>
<defs>
<filter id="filter0_f_3_12" x="20" y="217" width="264" height="89" filterUnits="userSpaceOnUse" color-interpolation-filters="sRGB">
<feFlood flood-opacity="0" result="BackgroundImageFix"/>
<feBlend mode="normal" in="SourceGraphic" in2="BackgroundImageFix" result="shape"/>
<feGaussianBlur stdDeviation="2" result="effect1_foregroundBlur_3_12"/>
</filter>
<filter id="filter1_f_3_12" x="20" y="322" width="83" height="42" filterUnits="userSpaceOnUse" color-interpolation-filters="sRGB">
<feFlood flood-opacity="0" result="BackgroundImageFix"/>
<feBlend mode="normal" in="SourceGraphic" in2="BackgroundImageFix" result="shape"/>
<feGaussianBlur stdDeviation="2" result="effect1_foregroundBlur_3_12"/>
</filter>
<filter id="filter2_f_3_12" x="33.386" y="334.816" width="55.9087" height="17.352" filterUnits="userSpaceOnUse" color-interpolation-filters="sRGB">
<feFlood flood-opacity="0" result="BackgroundImageFix"/>
<feBlend mode="normal" in="SourceGraphic" in2="BackgroundImageFix" result="shape"/>
<feGaussianBlur stdDeviation="2" result="effect1_foregroundBlur_3_12"/>
</filter>
</defs>
</svg>
